<?xml version="1.0" encoding="utf-8"?>
<!-- Generator: Adobe Illustrator 27.5.0, SVG Export Plug-In . SVG Version: 6.00 Build 0)  -->
<svg version="1.1" id="Layer_1" xmlns="http://www.w3.org/2000/svg" xmlns:xlink="http://www.w3.org/1999/xlink" x="0px" y="0px"
	 viewBox="0 0 900 900" style="enable-background:new 0 0 900 900;" xml:space="preserve">
<g>
	<path style="fill:#CCDEF2;" d="M686.62,811.492c0,2.506-2.51,4.556-5.577,4.556H214.016c-3.067,0-5.577-2.05-5.577-4.556
		c0-2.506,2.51-4.556,5.577-4.556h467.027C684.11,806.935,686.62,808.986,686.62,811.492z"/>
	<g>
		<g>
			<g>
				<path style="fill:#332316;" d="M309.824,790.697c-0.469,1.797,0.555,2.641,0.651,3.005c1.817,6.94,20.878,4.574,21.645,3.851
					c0.768-0.723,2.857-19.784,2.543-20.683c-0.313-0.899-12.927-1.18-14.74-1.265c-1.813-0.084-6.535-2.505-5.66-1.914
					C314.628,773.936,310.293,788.9,309.824,790.697z"/>
				<g>
					<path style="fill:#E5785C;" d="M325.77,581.052c-0.726,0-1.458-0.1-2.186-0.303c-3.418-0.958-5.737-3.934-6.203-7.962
						l-6.662-57.61c-0.447-3.862,2.322-7.354,6.183-7.801c3.86-0.449,7.354,2.322,7.801,6.183l5.172,44.729l8.652-11.117
						c2.388-3.067,6.811-3.619,9.878-1.232c3.068,2.388,3.619,6.81,1.232,9.878l-16.617,21.35
						C331.06,579.686,328.456,581.052,325.77,581.052z"/>
				</g>
				<path style="fill:#332316;" d="M286.896,805.092c1.413,1.371,0.557,9.037-1.624,9.377c-1.155,0.18-8.175,0.633-12,0.789
					c-5.234,0.213-16.064-1.793-21.03-3.659c-2.855-1.073-8.057-3.12-8.057-3.12s-7.574-2.002-7.981-2.204
					c-0.407-0.202-0.338-3.401-0.338-3.401s17.654-2.483,18.328-2.19c0.674,0.293,14.815,8.126,14.815,8.126l16.357-3.347
					L286.896,805.092z"/>
				<path style="fill:#602C34;" d="M253.641,619.188l0.234,16.852c0.104,7.486,6.273,12.897,13.709,12.025l36.474-4.28
					c7.436-0.873,13.511-7.712,13.5-15.199l-0.047-32.981L253.641,619.188z"/>
				<g>
					<path style="fill:#332316;" d="M309.669,793.616c0,0-0.535,3.955,6.486,3.389c6.701-0.54,9.964-8.575,9.964-8.575l10.827-1.21
						c0,0,1.013,4.895,1.933,6.031c2.513,3.104,8.908,9.041,8.908,9.041l12.508-0.426c0,0,1.5,9.968-2.33,10.277
						c-3.829,0.309-11.407,0.856-14.598,1.113c-3.191,0.257-20.258-2.743-20.258-2.743s-14.342,1.333-14.352,1.15
						C308.028,798.098,309.669,793.616,309.669,793.616z"/>
				</g>
				<polygon style="fill:#332316;" points="308.651,814.342 330.446,813.234 330.379,809.927 320.594,808.297 308.114,809.064 				
					"/>
				<polygon style="fill:#332316;" points="236.366,808.661 248.782,812.473 250.219,810.617 250.607,807.995 248.428,806.065 
					235.942,805.188 				"/>
				<path style="fill:#4F342F;" d="M361.802,803.786c0,0,0,0,0,0.027c0,0.167,0,0.976-0.112,1.673
					c-0.056,0.279-0.112,0.53-0.167,0.781c0,0.028-0.028,0.084-0.028,0.112c-0.028,0.084-0.056,0.167-0.084,0.251
					c0,0.056-0.028,0.111-0.028,0.139c-0.056,0.084-0.084,0.167-0.112,0.251c0,0.056-0.028,0.084-0.028,0.112
					c-0.056,0.139-0.112,0.278-0.195,0.418c-0.029,0.056-0.056,0.112-0.084,0.167c-0.028,0.056-0.056,0.112-0.084,0.167
					c-0.056,0.084-0.084,0.14-0.139,0.195c-0.028,0.055-0.056,0.083-0.084,0.139c-0.056,0.084-0.14,0.195-0.223,0.279l-0.083,0.084
					c-0.056,0.084-0.112,0.14-0.168,0.195c-0.028,0.027-0.084,0.055-0.112,0.083c-0.056,0.056-0.14,0.112-0.223,0.167
					c-0.028,0-0.028,0.028-0.056,0.028c-0.083,0.084-0.195,0.14-0.306,0.167c-0.028,0.028-0.056,0.028-0.084,0.056
					c-0.084,0.028-0.167,0.056-0.251,0.084c-0.028,0-0.056,0.027-0.112,0.027c-0.112,0.029-0.223,0.056-0.334,0.056
					c-1.701,0.14-4.127,0.335-6.553,0.53c-2.398,0.195-4.852,0.39-6.608,0.53c-0.418,0.028-0.809,0.056-1.115,0.084
					c-0.112,0.028-0.223,0.028-0.335,0.028h-0.391c-0.083,0-0.167,0-0.25-0.028h-0.53c-0.056-0.028-0.14-0.028-0.195-0.028
					c-0.14,0-0.251-0.028-0.39-0.028h-0.195c-0.14-0.028-0.279-0.028-0.447-0.056h-0.14c-0.167-0.028-0.334-0.056-0.53-0.056
					c-0.028,0-0.056,0-0.112-0.028c-0.195,0-0.39-0.028-0.613-0.056c-3.207-0.334-7.501-0.948-10.987-1.478
					c-3.486-0.53-6.19-0.976-6.19-0.976s-14.919,1.311-14.946,1.143c-0.112-1.896-0.14-3.625-0.14-5.186v-0.614
					c0.084-9.09,1.645-12.241,1.645-12.241s0.948,5.131,8.561,3.737c5.326-0.976,6.971-6.274,7.389-8.366
					c0.139-0.53,0.167-0.865,0.167-0.865l2.594-0.223l6.246-0.502l2.315-0.195c0,0,0.14,0.697,0.362,1.617v0.028
					c0.029,0.14,0.084,0.251,0.112,0.39c0,0.028,0,0.056,0.029,0.112c0.027,0.14,0.055,0.279,0.111,0.418
					c0,0.029,0,0.056,0.028,0.084c0.028,0.14,0.056,0.279,0.112,0.419c0,0.028,0,0.056,0,0.056c0.056,0.167,0.112,0.306,0.14,0.474
					c0.028,0.028,0.028,0.056,0.028,0.084c0.056,0.167,0.112,0.307,0.139,0.446c0.029,0,0.029,0.028,0.029,0.028
					c0.139,1.45,1.617,3.012,1.617,3.012c2.844,3.206,8.143,7.92,8.143,7.92s3.68,0.362,7.054,0.083
					c3.374-0.251,6.693,0.809,6.915,3.709C361.773,803.562,361.773,803.674,361.802,803.786z"/>
				<path style="fill:#332316;" d="M338.127,789.341l-30.088,13.887c0.084-9.09,1.645-12.241,1.645-12.241s0.948,5.131,8.561,3.737
					c5.326-0.976,6.971-6.274,7.389-8.366l9.007-1.59L338.127,789.341z"/>
				<g>
					<path style="fill:#4F342F;" d="M251.227,787.715c-2.893-0.695-10.595-3.12-11.57-0.367c-0.975,2.752-1.261,7.328-1.252,7.654
						c0.009,0.326,3.109,4.96,3.737,4.571c0.628-0.389,8.597-0.85,8.386-1.549C250.317,797.325,251.227,787.715,251.227,787.715z"/>
					<path style="fill:#332316;" d="M240.6,786.66c-0.469,1.797-0.259,2.477-0.164,2.841c1.817,6.94,20.878,4.574,21.645,3.851
						c0.768-0.723,2.857-19.784,2.543-20.683c-0.313-0.899-12.927-1.18-14.74-1.265c-1.813-0.084-6.535-2.505-5.66-1.915
						C244.59,769.736,241.069,784.863,240.6,786.66z"/>
					<path style="fill:#4F342F;" d="M285.786,811.035c-3.736,0.53-11.377,0.669-11.377,0.669c-0.613,0-2.677,0.056-3.793-0.028
						c-0.223-0.028-0.446-0.028-0.697-0.056c-0.083,0-0.195,0-0.306-0.028c-4.712-0.418-16.453-2.342-20.635-4.461
						c-1.868-0.948-5.047-1.84-8.031-2.761c-2.705-0.809-5.075-1.422-5.075-1.506c0.251-3.179,0.613-5.549,1.004-7.333
						c0.474-2.482,1.031-4.294,1.534-5.606c0.724-1.868,1.31-2.705,1.421-2.844c-0.167,0.447-1.924,5.326,6.107,4.936
						c6.329-0.306,6.86-6.832,6.86-6.832l16.257,0.753c0,0-0.864,5.493-0.864,5.717c0.306,0.669,0.753,1.339,1.283,2.008
						c1.952,2.537,4.824,4.936,5.214,5.354c0,0-0.027,0-0.056,0c0.112,0.055,0.167,0.111,0.167,0.111s6.107,3.263,9.955,3.346
						c2.119,0.029,3.012,1.701,3.04,3.43C288.073,808.247,287.236,810.813,285.786,811.035z"/>
					<path style="fill:#332316;" d="M269.474,793.663c-0.611-0.833-2.205-0.864-5.777-0.265c-5.328,0.894-21.727,2.324-25.287-3.443
						v-0.029c0.724-1.868,1.153-2.924,1.265-3.064c-0.167,0.447,1.002-2.353,6.753-1.264c6.226,1.179,6.37-0.413,6.37-0.413
						l16.257,0.753c0,0-0.864,5.493-0.864,5.717C268.497,792.325,268.944,792.994,269.474,793.663z"/>
				</g>
				<g>
					<path style="fill:#832434;" d="M249.792,788.992c12.855,3.204,23.467,3.101,24.664,0.189c0.386-0.961,1.772-9.867,3.449-21.374
						c0.236-1.64,0.481-3.317,0.726-5.042c0.169-1.159,0.33-2.328,0.5-3.506c0.236-1.668,0.481-3.355,0.726-5.061
						c2.987-21.167,7.964-54.464,7.964-54.464c0.122-0.5,4.024-107.766,4.024-107.766l-35.888-3.016l-2.535,12.563
						c-0.924-0.839-3.072,18.622-3.072,21.949c0,47.29,0.754,78.071,0.509,79.004l-6.748,45.831l-0.726,4.948l-0.509,3.411
						l-0.726,4.948l-2.95,20.036C239.2,781.641,236.919,785.797,249.792,788.992z"/>
				</g>
				<path style="fill:#832434;" d="M338.071,789.396c0,0-8.114,1.032-15.058,1.283v0.084c-6.804,0.056-19.436,1.757-19.436,1.757
					l-1.004-19.018l-0.306-5.577l-0.195-3.625l-0.307-5.549l-2.816-52.703c-0.112-1.478-0.53-5.215-0.948-7.111
					c-4.127-15.699-6.804-41.214-6.553-52.229L271.9,593.894l37.45-9.202c0,0,3.151,18.321,8.142,40.238
					c6.748,29.642,16.703,68.068,16.982,75.513l2.258,55.743l0.223,5.549l0.14,3.653l0.223,5.549L338.071,789.396z"/>
				<g>
					<path style="fill:#FE9701;" d="M310.341,543.454l-2.066-11.058c-2.002-10.719-4.729-22.531-6.455-29.39l-2.746-10.909
						c0,0-7.482-7.414,2.867-7.414c12.253,0,19.555,9.496,22.568,20.541c2.966,10.872,4.403,17.913,5.361,23.04l2.066,11.058
						L310.341,543.454z"/>
					<polygon style="opacity:0.5;fill:#D64404;" points="322.52,541.149 315.217,505.574 301.102,544.974 					"/>
				</g>
				<path style="fill:#832434;" d="M250.849,619.597l0.794,25.661c0.323,7.48,5.973,2.576,13.378,1.466l39.113-5.862
					c7.404-1.11,13.452-8.143,13.439-15.63l-0.061-36.572L250.849,619.597z"/>
				<path style="fill:#FE9701;" d="M270.055,484.623l30.82,0c9.98,0.082,16.879,9.153,16.879,19.8c0,0-1.877,89.866-2.121,96.683
					c-0.025,0.703-0.813,2.091-0.813,2.091s4.653-3.244-21.473-3.039c-30.722,0.241-43,23.302-43,23.302l0-119.596
					C250.347,493.217,260.075,484.542,270.055,484.623z"/>
				<polygon style="opacity:0.5;fill:#D64404;" points="268.283,511.06 265.445,510.363 264.684,510.363 255.796,516.289 
					252.833,553.237 257.401,563.868 278.801,555.677 279.847,527.094 				"/>
				<path style="fill:#832434;" d="M318.329,552.372c0,0-0.419,20.886-0.809,51.56c0,0-66.227,36.167-67.176,21.471
					c-0.056-0.808-0.083-1.728-0.139-2.788c-0.029-0.502-0.029-1.004-0.029-1.477c-0.669-21.277,0.447-80.421,0.447-80.421
					l6.246,2.733v10.931c0,0,3.346-0.586,8.589-0.586c0.893,0,1.701-0.139,2.454-0.39c10.541-3.681,7.39-31.678,7.39-39.764h37.923
					C313.225,552.372,313.978,552.372,318.329,552.372z"/>
				<path style="opacity:0.7;fill:#631729;" d="M276.608,587.977c-12.588,5.026-26.431,7.506-26.431,33.161
					c-0.669-21.277,0.447-80.421,0.447-80.421l6.246,2.733v10.931c0,0,3.346-0.586,8.589-0.586c0.893,0,1.701-0.139,2.454-0.39
					c1.116,2.091,1.813,3.486,1.813,3.486c0.679,24.804,36.098,1.296,36.098,8.783C305.823,575.725,289.196,582.951,276.608,587.977
					z"/>
				<g>
					<path style="fill:#8E3925;" d="M258.566,437.41c1.087,15.125,4.824,19.211,10.736,19.211c4.849,0,8.866-6.693,8.693-8.258
						c-0.174-1.565-1.913-10.779-3.303-11.301C273.3,436.541,258.566,437.41,258.566,437.41z"/>
					<path style="fill:#8E3925;" d="M272.405,453.401c-0.961-1.929-1.552,4.2-1.566,3.467c-0.246-12.876-11.274-3.29-12.143-17.546
						c-0.741-12.156-0.845-12.262-1.173-18.168c-0.652-11.735,6.165-24.185,31.246-23.993c13.963,0.107,17.545,5.529,20.693,12.641
						c5.864,13.245,1.13,30.259,1.13,30.259L272.405,453.401z"/>
					<path style="fill:#FFB287;" d="M294.978,485.519c0,0,0.191,4.954-7.88,4.954c-8.072,0-13.097-4.954-13.097-4.954l0-24.582
						l20.978-1.162L294.978,485.519z"/>
					<path style="fill:#E5785C;" d="M294.978,480.259c-5.497,0.672-20.83-1.297-20.83-4.908c0-3.611-0.148-19.633-0.148-19.633
						l20.978,0.142V480.259z"/>
					<path style="fill:#E5785C;" d="M313.102,447.849c0,4.831-4.21,15.966-6.823,19.297c-1.115,1.421-2.653,4.649-6.191,5.721
						c-3.219,0.976-5.123,1.663-5.123,3.402c0,1.887-3.962-1.771-5.314-1.771c-16.079,0-24.027-17.32-24.027-29.12l4.955-15.479
						c0-12.918,8.573-22.203,21.051-22.108c12.478,0.096,22.525,8.603,22.525,21.521L313.102,447.849z"/>
					<path style="fill:#FFB287;" d="M314.48,428.813l-0.167,5.131l-0.446,13.915c-0.474,13.552-3.514,26.073-19.965,25.933
						c-16.425-0.112-20.83-19.993-20.384-32.877l0.781-11.21c0-0.474,0-0.948,0.028-1.394c0.335-16.815,7.167-22.977,19.241-22.977
						C310.047,405.334,314.927,415.902,314.48,428.813z"/>
					<g>
						<path style="fill:#E5785C;" d="M299.845,450.973c2.342,0.003,4.334-1.32,4.231-2.669c-0.038-0.491-0.528-1.084-1.446-0.651
							c-0.421,0.198-1.56,0.43-2.77,0.423c-1.21-0.008-1.866-0.251-2.549-0.456c-1.49-0.447-1.959,0.139-1.997,0.63
							C295.21,449.596,297.503,450.946,299.845,450.973z"/>
					</g>
					<path style="fill:#E5785C;" d="M273.762,439.734c0.341,4.814-2.106,8.949-5.467,9.236s-6.362-3.383-6.703-8.197
						c-0.341-4.814,1.532-8.562,4.86-9.156C269.78,431.022,273.42,434.92,273.762,439.734z"/>
					<path style="fill:#422B27;" d="M287.987,438.67c0,1.144,0.935,2.078,2.088,2.087c1.153,0.009,2.088-0.911,2.088-2.055
						c0-1.144-0.935-2.078-2.088-2.087C288.922,436.606,287.987,437.526,287.987,438.67z"/>
					<path style="fill:#422B27;" d="M306.424,438.991c0,1.144,0.935,2.078,2.088,2.087c1.153,0.009,2.088-0.911,2.088-2.055
						c0-1.144-0.935-2.078-2.088-2.087C307.359,436.927,306.424,437.847,306.424,438.991z"/>
					<g>
						<path style="fill:#8E3925;" d="M284.36,431.474c-0.708,0-1.29-0.567-1.304-1.279c-0.015-0.72,0.558-1.316,1.278-1.331
							l9.395-0.189c0.72-0.027,1.316,0.558,1.331,1.278c0.015,0.72-0.558,1.316-1.278,1.331l-9.395,0.189
							C284.378,431.474,284.369,431.474,284.36,431.474z"/>
					</g>
					<g>
						<path style="fill:#8E3925;" d="M313.508,432.219c-0.032,0-0.063-0.001-0.095-0.003l-8.09-0.584
							c-0.719-0.052-1.259-0.677-1.208-1.396c0.052-0.719,0.68-1.258,1.396-1.207l8.09,0.584c0.719,0.052,1.259,0.677,1.208,1.396
							C314.759,431.695,314.186,432.219,313.508,432.219z"/>
					</g>
					<path style="fill:#8E3925;" d="M268.702,427.948c0-7.316,3.277-13.851,8.384-18.127c-2.462-3.059-3.355-7.631-2.83-8.051
						c0.869-0.695,12.139-9.072,25.439-1.379c9.108,5.268,13.275,8.804,11.716,12.543c0.02,0.043,0.041,0.084,0.061,0.128
						c-0.025-0.027-0.052-0.055-0.079-0.082c-1.41,3.323-4.539,5.48-7.321,5.48c-11.648,0-11.401-6.839-20.08-6.172
						c-3.39,0.261-8.54,2.412-8.54,10.888c0,9.192-1.504,18.779-1.562,18.783c-2.727,0.176-2.762-1.593-2.762-1.593
						c0-4.868-0.729-7.591-3.825-9.04L268.702,427.948z"/>
				</g>
				<g>
					<path style="fill:#E5785C;" d="M297.887,461.516c-0.006,0-0.012,0-0.019,0c-3.263-0.001-5.575-0.464-6.869-1.376
						c-0.643-0.453-0.798-1.341-0.345-1.985c0.453-0.644,1.341-0.798,1.985-0.345c0.76,0.535,2.716,0.855,5.231,0.856
						c0.006,0,0.012,0,0.017,0c1.368,0,3.302-0.09,4.379-0.85c0.642-0.454,1.531-0.301,1.985,0.342
						c0.454,0.643,0.3,1.531-0.343,1.985C302.189,461.358,299.79,461.516,297.887,461.516z"/>
				</g>
				<g>
					<path style="fill:#602C34;" d="M302.733,639.073c-0.002-0.035-0.003-0.07-0.004-0.106
						C302.73,639.002,302.731,639.037,302.733,639.073z"/>
					<path style="fill:#602C34;" d="M302.706,638.014c0,0.013,0.001,0.026,0.001,0.039
						C302.707,638.04,302.706,638.027,302.706,638.014z"/>
					<path style="fill:#631729;" d="M305.627,645.662c-0.903-5.537-2.16-10.877-2.16-10.877c-5.039,9.972-10.246,9.199-13.951,8.03
						l-0.293,14.916l8.939,41.193c0.107,0.388,0.219,0.861,0.332,1.379C296.438,682.181,307.784,658.887,305.627,645.662z"/>
					<path style="fill:#602C34;" d="M302.722,637.015c-0.001,0.02-0.001,0.039-0.002,0.059
						C302.721,637.054,302.721,637.034,302.722,637.015z"/>
					<path style="fill:#602C34;" d="M303.108,642.362c-0.013-0.072-0.026-0.144-0.039-0.215
						C303.082,642.218,303.095,642.29,303.108,642.362z"/>
					<path style="fill:#602C34;" d="M302.919,641.177c-0.005-0.033-0.008-0.065-0.012-0.098
						C302.911,641.111,302.914,641.144,302.919,641.177z"/>
					<path style="fill:#602C34;" d="M302.809,640.177c-0.005-0.053-0.01-0.105-0.015-0.158
						C302.799,640.072,302.804,640.125,302.809,640.177z"/>
				</g>
				<g>
					<path style="fill:#FFB287;" d="M273.243,581.437c-1.52,0-3.027-0.302-4.44-0.91c-3.182-1.37-5.566-4.156-6.54-7.645
						l-14.49-51.908c-1.045-3.744,1.143-7.627,4.887-8.672c3.744-1.043,7.627,1.143,8.672,4.887l13.664,48.951l32.777-17.293
						c3.439-1.814,7.696-0.497,9.51,2.941c1.814,3.438,0.497,7.696-2.941,9.51l-35.492,18.725
						C277.07,580.963,275.147,581.437,273.243,581.437z"/>
				</g>
				<path style="fill:#FE9701;" d="M270.564,484.622c-22.904,0-27.87,13.625-27.656,25.076c0.21,11.272,4.838,40.1,4.838,40.1
					l24.156-8.238l-3.618-31.371L270.564,484.622z"/>
			</g>
			<path style="fill:#832434;" d="M270.055,484.623c10.935,0,13.486,17.503,13.34,29.01l-3.771,8.366l-4.315-8.366
				c0.145-11.507-2.57-28.637-14.747-27.951c0,0,2.723-0.511,4.636-0.784C267.111,484.626,270.055,484.623,270.055,484.623z"/>
			<path style="fill:#832434;" d="M300.042,484.623c0,0-2.944-0.287-4.857-0.015c-0.067,0.009-0.139,0.02-0.207,0.03v0.881
				c0,0,0.012,0.315-0.099,0.784c8.504,3.13,10.544,17.341,10.417,27.331l4.689,5.577l3.244-5.577
				C313.374,502.126,310.977,484.623,300.042,484.623z"/>
		</g>
		<path style="fill:#FFB287;" d="M299.699,553.061c3.486-1.859,7.882-6.946,9.783-8.78c1.901-1.834,10.099-1.576,10.557,0
			c0.458,1.576,0.123,5.043,0,5.517c-0.123,0.474-1.179,2.101-1.697,2.566c-0.518,0.465-1.177-0.229-2.377,0.697
			c-1.199,0.926-6.25,1.743-6.785,2.091c-0.535,0.349-4.445,1.627-5.047,1.743C303.533,557.011,299.699,553.061,299.699,553.061z"/>
		<path style="opacity:0.6;fill:#C67560;" d="M314.48,428.813l-0.167,5.131c-0.724-3.597-11.913-4.343-24.238-3.869
			c-7.362,0.307-14.923,0.84-15.174,3.869c0.335-16.815,6.592-28.61,18.666-28.61C310.047,405.334,314.927,415.902,314.48,428.813z"
			/>
		<g>
			<path style="fill:#FE9701;" d="M313.229,421.112c-1.819-1.395-3.713-0.697-12.129-0.697c-9.538,0-19.273,1.395-27.105,3.77
				c-7.926,2.394-13.891,5.796-15.644,9.707c-0.82,0.603-2.092-7.144-2.215-12.713c-0.019-0.311-0.019-0.603-0.019-0.896
				c0-2.196,0.273-4.373,0.82-6.475c2.403-9.094,10.093-16.851,24.108-19.075c0.056,0,0.113-0.029,0.141-0.029
				c1.564-0.245,3.204-0.415,4.938-0.527c0.613-0.038,1.206-0.057,1.8-0.057c3.666-0.047,6.88,0.5,9.669,1.451
				c0.198,0.066,0.396,0.132,0.584,0.217c7.172,2.62,11.526,7.963,13.769,13.052C314.737,415.118,314.511,421.008,313.229,421.112z"
				/>
			<path style="fill:#D86619;" d="M322.704,417.973c-2.893,0.14-6.116-0.152-9.475-0.05c1.025,3.261,1.39,6.965,1.254,10.89l0,0
				C335.885,429.884,340.365,417.121,322.704,417.973z"/>
			<path style="opacity:0.5;fill:#D64404;" d="M258.35,433.892c1.753-3.911,7.718-7.313,15.644-9.707
				c7.832-2.375,17.567-3.77,27.104-3.77c8.416,0,10.31-0.698,12.129,0.697c1.282-0.104,1.508-5.994-1.282-12.27
				c-2.243-5.089-6.597-10.433-13.769-13.052c6.088,3.76,6.682,13.628,7.096,16.737c0.471,3.534-9.424,4.241-24.739,8.011
				C265.22,424.308,258.548,430.047,258.35,433.892z"/>
		</g>
		<path style="fill:#FFC229;" d="M327.642,418.138c-6.978-0.174-9.345,3.158-24.012,7.931c-11.127,3.628-21.962-0.185-29.63-1.881
			c2.621-2.387,29.325-6.482,44.058-6.586C321.893,417.574,327.001,418.042,327.642,418.138z"/>
	</g>
	<path style="fill:#FFB287;" d="M300.927,554.63c3.486-1.859,7.882-6.946,9.783-8.78c1.901-1.834,10.099-1.576,10.557,0
		s0.123,5.043,0,5.517c-0.123,0.474-1.179,2.101-1.697,2.566c-0.518,0.465-1.177-0.229-2.377,0.697
		c-1.199,0.926-6.25,1.743-6.785,2.091c-0.535,0.349-4.445,1.627-5.047,1.743C304.762,558.58,300.927,554.63,300.927,554.63z"/>
	<g>
		<g>
			<path style="fill:#B7BAC4;" d="M375.695,755.672l-34.736-164.921L375.695,755.672z"/>
			<g>
				<path style="fill:#333332;" d="M375.686,764.719c-4.187,0-7.945-2.923-8.842-7.183l-34.736-164.921
					c-1.03-4.888,2.099-9.686,6.987-10.715c4.891-1.029,9.686,2.099,10.715,6.987l34.736,164.921
					c1.03,4.888-2.099,9.686-6.987,10.715C376.931,764.655,376.303,764.719,375.686,764.719z"/>
			</g>
		</g>
		<path style="fill:#F76908;" d="M379.245,774.609c0.232,7.665-5.853,13.936-13.521,13.936h-55.685
			c-7.668,0-13.943-6.274-13.943-13.943V666.648c0-7.668,4.874-17.894,10.83-22.724l55.904-45.326
			c5.957-4.829,11.02-2.51,11.251,5.155L379.245,774.609z"/>
		<polygon style="fill:#FFA466;" points="378.315,621.455 376.334,657.927 296.103,718.75 296.103,688.19 		"/>
		<polygon style="fill:#FFA466;" points="378.315,666.22 376.334,683.44 296.103,744.263 296.103,732.955 		"/>
		<g>
			<path style="fill:#DD5712;" d="M367.902,778.785c-2.267,0-4.183-1.915-4.183-4.183V603.196c0-2.267,1.915-4.183,4.183-4.183
				h118.521c2.267,0,4.183,1.915,4.183,4.183v171.406c0,2.267-1.915,4.183-4.183,4.183H367.902z"/>
			<g>
				<path style="fill:#485959;" d="M480.846,608.773v160.252H373.478V608.773H480.846L480.846,608.773z M486.423,589.254H367.902
					c-7.668,0-13.943,6.274-13.943,13.943v171.406c0,7.668,6.274,13.943,13.943,13.943h118.521c7.668,0,13.942-6.274,13.942-13.943
					V603.196C500.366,595.528,494.092,589.254,486.423,589.254L486.423,589.254z"/>
			</g>
		</g>
		<g>
			<path style="fill:#C44E1A;" d="M379.229,778.785c-2.267,0-4.183-1.915-4.183-4.183V603.196c0-2.267,1.916-4.183,4.183-4.183
				h129.438c2.267,0,4.183,1.915,4.183,4.183v171.406c0,2.267-1.915,4.183-4.183,4.183H379.229z"/>
			<path style="fill:#333332;" d="M503.09,608.773v160.252H384.806V608.773H503.09L503.09,608.773z M508.667,589.254H379.229
				c-7.669,0-13.943,6.274-13.943,13.943v171.406c0,7.668,6.274,13.943,13.943,13.943h129.438c7.668,0,13.942-6.274,13.942-13.943
				V603.196C522.609,595.528,516.335,589.254,508.667,589.254L508.667,589.254z"/>
		</g>
		<rect x="392.151" y="171.325" style="fill:#333332;" width="28.863" height="617.22"/>
		<polygon style="fill:#485959;" points="401.493,615.8 392.151,598.419 392.151,171.325 401.493,171.325 		"/>
		<rect x="406.334" y="450.314" style="fill:#333332;" width="85.724" height="18.164"/>
		<rect x="406.334" y="361.283" style="fill:#333332;" width="85.724" height="18.164"/>
		<rect x="406.334" y="742.026" style="fill:#333332;" width="85.724" height="18.164"/>
		<rect x="406.334" y="211.193" style="fill:#333332;" width="85.724" height="18.164"/>
		<rect x="406.334" y="589.337" style="fill:#333332;" width="85.724" height="18.164"/>
		<rect x="406.334" y="479.42" style="fill:#333332;" width="302.428" height="18.164"/>
		<rect x="470.044" y="171.325" style="fill:#333332;" width="28.863" height="617.22"/>
		<rect x="495.933" y="469.576" style="fill:#C44E1A;" width="227.737" height="18.211"/>
		<rect x="498.738" y="469.576" style="fill:#8E3D2E;" width="191.35" height="18.211"/>
		<rect x="449.618" y="469.576" style="fill:#C44E1A;" width="189.792" height="18.211"/>
		<polygon style="fill:#F76908;" points="412.061,487.79 601.009,487.79 601.009,469.629 544.689,460.771 490.857,452.44 
			442.237,444.909 437.233,444.137 412.164,444.137 		"/>
		<polygon style="fill:#C44E1A;" points="454.151,469.629 463.745,487.79 586.241,487.79 576.647,469.629 		"/>
		<polygon style="fill:#C44E1A;" points="428.744,444.133 428.744,469.63 442.237,469.63 442.237,444.906 437.234,444.133 		"/>
		<g>
			<rect x="435.298" y="170.32" style="fill:#FCC490;" width="141.348" height="299.313"/>
			<rect x="555.867" y="170.32" style="fill:#CC8271;" width="132.736" height="299.313"/>
			<g>
				<g style="opacity:0.5;">
					<rect x="435.298" y="267.834" style="fill:#C9804F;" width="253.003" height="4.548"/>
				</g>
				<g style="opacity:0.5;">
					<rect x="435.259" y="367.623" style="fill:#C9804F;" width="253.042" height="4.548"/>
				</g>
			</g>
			<rect x="481.613" y="268.1" style="fill:#A86951;" width="19.655" height="21.44"/>
			<rect x="661.988" y="344.326" style="opacity:0.8;fill:#C2D8EF;" width="18.37" height="16.714"/>
			<g style="opacity:0.2;">
				<rect x="604.26" y="344.326" style="fill:#333332;" width="15.783" height="16.714"/>
			</g>
			<g style="opacity:0.2;">
				<rect x="584.155" y="344.326" style="fill:#333332;" width="15.783" height="16.714"/>
			</g>
			<g style="opacity:0.2;">
				<rect x="564.678" y="344.326" style="fill:#333332;" width="15.783" height="16.714"/>
			</g>
			<g style="opacity:0.2;">
				<rect x="604.26" y="243.171" style="fill:#333332;" width="15.783" height="16.714"/>
			</g>
			<g style="opacity:0.2;">
				<rect x="584.155" y="243.171" style="fill:#333332;" width="15.783" height="16.714"/>
			</g>
			<g style="opacity:0.2;">
				<rect x="564.678" y="243.171" style="fill:#333332;" width="15.783" height="16.714"/>
			</g>
			<g style="opacity:0.2;">
				<rect x="604.26" y="445.166" style="fill:#333332;" width="15.783" height="16.714"/>
			</g>
			<g style="opacity:0.2;">
				<rect x="584.155" y="445.166" style="fill:#333332;" width="15.783" height="16.714"/>
			</g>
			<g style="opacity:0.2;">
				<rect x="564.678" y="445.166" style="fill:#333332;" width="15.783" height="16.714"/>
			</g>
			
				<rect x="526.673" y="314.832" transform="matrix(0.1932 -0.9812 0.9812 0.1932 106.0013 802.0095)" style="opacity:0.8;fill:#C2D8EF;" width="28.017" height="43.432"/>
			<rect x="661.988" y="446.109" style="opacity:0.8;fill:#C2D8EF;" width="18.37" height="16.714"/>
			<rect x="661.988" y="244.428" style="opacity:0.8;fill:#C2D8EF;" width="18.37" height="16.714"/>
			<rect x="479.853" y="170.32" style="fill:#A86951;" width="19.655" height="18.167"/>
			<rect x="479.853" y="367.801" style="fill:#A86951;" width="19.655" height="26.821"/>
			<rect x="479.853" y="457.804" style="fill:#A86951;" width="19.655" height="12.212"/>
		</g>
	</g>
	<path style="fill:#333332;" d="M343.723,555.35c3.067,0,6.093,2.456,6.724,5.458l4.568,21.746c0.631,3.002-1.363,5.458-4.43,5.458
		h-20.419c-3.067,0-6.093-2.456-6.724-5.458l-4.568-21.746c-0.63-3.002,1.363-5.458,4.431-5.458H343.723L343.723,555.35z
		 M343.723,546.984h-20.418c-3.994,0-7.674,1.712-10.097,4.696c-2.423,2.984-3.342,6.938-2.521,10.847l4.568,21.747
		c1.449,6.9,7.859,12.103,14.911,12.103h20.419c3.994,0,7.674-1.712,10.097-4.697c2.423-2.985,3.341-6.938,2.52-10.847
		l-4.567-21.745C357.183,552.188,350.773,546.984,343.723,546.984L343.723,546.984z"/>
	<g>
		<path style="fill:#333332;" d="M341.319,591.119c-1.507,0-2.867-1.039-3.214-2.57l-8.011-35.341
			c-0.403-1.777,0.711-3.544,2.488-3.946c1.776-0.402,3.543,0.711,3.946,2.488l8.011,35.341c0.403,1.777-0.711,3.543-2.488,3.946
			C341.806,591.093,341.56,591.119,341.319,591.119z"/>
	</g>
	<path style="fill:#FFB287;" d="M338.747,547.092c4.793,0.349,5.52,6.009,5.585,8.464c0.101,3.776,6.283,5.09,9.677,4.871
		c5.984-0.386,6.918-5.535,6.284-10.203c-0.746-5.499-3.024-6.897-8.388-6.897c-3.034,0-6.067-0.324-9.498,0.259
		C338.651,544.225,338.747,547.092,338.747,547.092z"/>
	<path style="fill:#FFB287;" d="M310.409,547.092c4.793,0.349,5.52,6.009,5.585,8.464c0.101,3.776,6.283,5.09,9.677,4.871
		c5.984-0.386,6.918-5.535,6.284-10.203c-0.746-5.499-3.024-6.897-8.388-6.897c-3.034,0-6.067-0.324-9.498,0.259
		C310.313,544.225,310.409,547.092,310.409,547.092z"/>
	<path style="fill:#333332;" d="M517.924,810.471c0,3.067-2.51,5.577-5.577,5.577H297.194c-3.067,0-5.577-2.51-5.577-5.577v-16.142
		c0-3.067,2.51-5.577,5.577-5.577h215.153c3.067,0,5.577,2.51,5.577,5.577V810.471z"/>
	<path style="fill:#333332;" d="M529.079,791.334c0,3.067-2.51,5.577-5.577,5.577H293.308c-3.067,0-5.577-2.51-5.577-5.577v-16.142
		c0-3.067,2.51-5.577,5.577-5.577h230.194c3.067,0,5.577,2.51,5.577,5.577V791.334z"/>
	<path style="fill:#485959;" d="M368.147,791.334c0,3.067-2.51,5.577-5.577,5.577h-72.051c-3.067,0-5.577-2.51-5.577-5.577V774.25
		c0-3.067,2.51-5.577,5.577-5.577h72.051c3.067,0,5.577,2.51,5.577,5.577V791.334z"/>
	<g>
		<path style="fill:#333332;" d="M415.437,580.62c-2.31,0-4.183-1.873-4.183-4.183c0-2.31,1.873-4.183,4.183-4.183
			c22.335,0,36.768-29.8,36.768-75.918c0-2.31,1.873-4.183,4.183-4.183c2.31,0,4.183,1.873,4.183,4.183
			C460.57,548.324,443.276,580.62,415.437,580.62z"/>
	</g>
	<g>
		<path style="fill:#333332;" d="M485.177,659.372c-1.562,0-2.827-1.266-2.827-2.827c0-1.562,1.266-2.827,2.827-2.827
			c9.571,0,15.777-4.647,19.175-28.401c3.518-24.589,3.781-68.312,3.781-132.21c0-1.561,1.266-2.827,2.827-2.827
			c1.561,0,2.827,1.266,2.827,2.827C513.787,627.619,512.737,659.372,485.177,659.372z"/>
	</g>
</g>
<path style="fill:#EDE9E6;stroke:#EDE9E6;stroke-width:0.4712;stroke-linejoin:round;stroke-miterlimit:10;" d="M243.384,753.245
	c11.3,4.985,24.333,8.595,35.746,6.013c0.236-1.668,0.481-3.355,0.726-5.061c-7.181,2.054-15.503,0.65-22.468-1.225
	c-4.561-1.235-8.981-2.809-13.279-4.674L243.384,753.245z"/>
<path style="fill:#EDE9E6;stroke:#EDE9E6;stroke-width:0.4712;stroke-linejoin:round;stroke-miterlimit:10;" d="M242.15,761.604
	c11.271,5.004,24.315,8.68,35.756,6.201c0.236-1.64,0.481-3.317,0.726-5.042c-7.125,1.932-15.315,0.547-22.185-1.31
	c-4.665-1.263-9.179-2.875-13.571-4.797L242.15,761.604z"/>
<g>
	<g>
		<path style="fill:#333332;" d="M342.264,762.17c-1.041,0-1.885-0.844-1.885-1.885v-16.964c0-1.041,0.844-1.885,1.885-1.885
			c1.041,0,1.885,0.844,1.885,1.885v16.964C344.149,761.326,343.305,762.17,342.264,762.17z"/>
	</g>
	<g>
		<path style="fill:#333332;" d="M335.196,762.17c-1.041,0-1.885-0.844-1.885-1.885v-16.964c0-1.041,0.844-1.885,1.885-1.885
			c1.041,0,1.885,0.844,1.885,1.885v16.964C337.081,761.326,336.237,762.17,335.196,762.17z"/>
	</g>
	<g>
		<path style="fill:#333332;" d="M328.127,762.17c-1.041,0-1.885-0.844-1.885-1.885v-16.964c0-1.041,0.844-1.885,1.885-1.885
			c1.041,0,1.885,0.844,1.885,1.885v16.964C330.012,761.326,329.168,762.17,328.127,762.17z"/>
	</g>
	<g>
		<path style="fill:#333332;" d="M321.059,762.17c-1.041,0-1.885-0.844-1.885-1.885v-16.964c0-1.041,0.844-1.885,1.885-1.885
			c1.041,0,1.885,0.844,1.885,1.885v16.964C322.944,761.326,322.1,762.17,321.059,762.17z"/>
	</g>
	<g>
		<path style="fill:#333332;" d="M313.991,762.17c-1.041,0-1.885-0.844-1.885-1.885v-16.964c0-1.041,0.844-1.885,1.885-1.885
			c1.041,0,1.885,0.844,1.885,1.885v16.964C315.876,761.326,315.032,762.17,313.991,762.17z"/>
	</g>
</g>
<g>
	<rect x="541.93" y="109.838" style="fill:#EAA16A;" width="65.947" height="60.644"/>
	<rect x="535.333" y="109.838" style="fill:#B56D61;" width="65.947" height="60.644"/>
	<rect x="607.877" y="109.838" style="fill:#CC8271;" width="66.762" height="60.644"/>
</g>
<g>
	<rect x="452.752" y="92.282" style="fill:#F3DCBD;" width="75.372" height="78.201"/>
	<rect x="528.125" y="92.282" style="fill:#C4AD91;" width="64.877" height="78.201"/>
	<rect x="482.366" y="92.702" style="fill:#A86951;" width="16.144" height="11.437"/>
</g>
<rect x="495.177" y="150.185" style="opacity:0.8;fill:#FFFFFF;" width="25.91" height="16.714"/>
<polygon style="opacity:0.8;fill:#FFFFFF;" points="516.671,346.095 555.866,353.823 555.866,325.258 522.08,318.605 "/>
<polygon style="opacity:0.8;fill:#C2D8EF;" points="555.866,325.258 555.866,353.823 559.278,354.492 564.697,327.002 "/>
<g style="opacity:0.7;">
	<path style="fill:#631729;" d="M271.189,529.445c0,0.496,0.406,0.902,0.902,0.902h19.088c0.496,0,0.902-0.406,0.902-0.902v-12.992
		c0-0.496-0.406-0.902-0.902-0.902H272.09c-0.496,0-0.902,0.406-0.902,0.902V529.445z"/>
</g>
<path style="fill:#FFFFFF;" d="M273.544,526.044c0,0.496,0.406,0.902,0.902,0.902h19.088c0.496,0,0.902-0.406,0.902-0.902v-11.947
	c0-0.496-0.406-0.902-0.902-0.902h-19.088c-0.496,0-0.902,0.406-0.902,0.902V526.044z"/>
<path style="fill:#B6B8BF;" d="M281.698,513.264c0,0.496,0.406,0.902,0.902,0.902h2.781c0.496,0,0.902-0.406,0.902-0.902v-4.502
	c0-0.496-0.406-0.902-0.902-0.902H282.6c-0.496,0-0.902,0.406-0.902,0.902V513.264z"/>
<g style="opacity:0.6;">
	<path style="fill:#4C888E;" d="M286.945,520.003c0,0.496,0.406,0.902,0.902,0.902h3.103c0.496,0,0.902-0.406,0.902-0.902v-3.016
		c0-0.496-0.406-0.902-0.902-0.902h-3.103c-0.496,0-0.902,0.406-0.902,0.902V520.003z"/>
</g>
<path style="opacity:0.3;fill:#FFC229;" d="M277.427,412.526c-7.954,2.036-14.938,2.309-20.489,1.282
	c2.403-9.094,10.093-16.851,24.108-19.075c0.056,0,0.113-0.029,0.141-0.029c1.564-0.245,3.204-0.415,4.938-0.527
	c0.613-0.038,1.206-0.057,1.8-0.057C290.244,401.849,288.773,409.614,277.427,412.526z"/>
</svg>
