<?xml version="1.0" encoding="utf-8"?>
<!-- Generator: Adobe Illustrator 27.5.0, SVG Export Plug-In . SVG Version: 6.00 Build 0)  -->
<svg version="1.1" id="Layer_1" xmlns="http://www.w3.org/2000/svg" xmlns:xlink="http://www.w3.org/1999/xlink" x="0px" y="0px"
	 viewBox="0 0 2700 1800" style="enable-background:new 0 0 2700 1800;" xml:space="preserve">
<rect style="fill:none;" width="2700" height="1800"/>
<g>
	<ellipse style="opacity:0.4;fill:#545454;" cx="1336.471" cy="1506.09" rx="1069.007" ry="13.153"/>
	<g>
		<g>
			<path style="fill:#F48E69;" d="M1948.172,1466.63c-1.137,5.292-2.351,10.501-3.619,15.691c-1.646,6.76-3.384,13.49-5.161,20.362
				l-3.702-1.441l-18.049-7.011c1.448-0.591,2.868-1.522,4.231-2.726c3.702-3.244,7.078-8.414,10.001-13.819
				c3.016-5.568,5.555-11.386,7.492-15.616C1942.033,1464.253,1945.492,1464.845,1948.172,1466.63z"/>
			<g>
				<path style="fill:#4F342C;" d="M1944.553,1482.321c-1.646,6.76-2.748,15.06-4.524,21.931l-4.34-3.01l-13.818-9.737
					c3.702-3.244,7.078-8.414,10.001-13.819c3.929,0.977,8.93,2.988,11.599,4.134
					C1943.876,1482.001,1944.234,1482.16,1944.553,1482.321z"/>
				<g>
					<path style="fill:#4F342C;" d="M1940.029,1504.252h-64.036c0.935-1.057,2.295-2.754,4.232-4.726
						c6.141-6.272,18.12-15.334,40.98-15.321c6.792,0.007,11.144,1.148,13.931,3.262
						C1939.561,1490.83,1940.029,1496.653,1940.029,1504.252z"/>
					<path style="fill:#63443D;" d="M1935.136,1487.468c-6.71,3.606-17.787,7.198-30.567,9.571
						c-9.037,1.677-17.494,2.488-24.344,2.488c6.141-6.272,18.12-15.334,40.98-15.321
						C1927.998,1484.212,1932.349,1485.354,1935.136,1487.468z"/>
				</g>
			</g>
			<path style="fill:#23477C;" d="M1925.453,1463.053c6.023,4.63,16.649,3.406,23.962,5.564
				c27.579-77.443,64.495-139.522,87.825-209.771c8.155-24.53-17.241-32.948-14.309-57.411
				c5.643-47.06,18.439-88.228,29.078-128.566c11.613-44.01,20.661-87.031,15.045-135.644l-21.095-6.446h-0.012l-49.344-15.058
				c-6.878,22.859-10.363,53.675-12.349,86.793c-0.881,14.784-1.46,30.029-1.92,45.234c-1.986,66.564-1.498,132.339-12.73,155.161
				C1950.27,1242.196,1956.32,1384.651,1925.453,1463.053z"/>
		</g>
		<g>
			<g>
				<path style="fill:#F48E69;" d="M2182.939,1460.438c-3.549-1.067-7.639-0.847-11.289-2.266
					c-2.354,10.149-6.043,29.026-15.669,34.681l27.079,2.976C2183.221,1483.864,2183.387,1472.324,2182.939,1460.438z"/>
				<path style="fill:#4F342C;" d="M2189.693,1503.97l-53.034,0.282c0.775-1.263,1.906-3.31,3.521-5.685
					c5.059-7.451,14.912-18.168,33.789-18.251c10.042-0.046,11.689,3.609,13.137,11.137
					C2187.76,1494.839,2188.375,1499.004,2189.693,1503.97z"/>
				<path style="fill:#63443D;" d="M2187.116,1491.774c-6.598,2.229-15.355,4.13-25.049,5.257
					c-8.102,0.946-15.686,1.213-22.003,0.891c5.198-7.269,15.25-17.672,34.124-17.401
					C2184.231,1480.665,2185.811,1484.31,2187.116,1491.774z"/>
			</g>
			<g>
				<path style="fill:#23477C;" d="M2002.757,937.513c5.839,36.697,27.513,87.163,49.252,135.355
					c25.777,57.067,51.645,110.941,51.487,134.944c-0.288,43.772,21.897,72.998,36.272,112.813
					c9.496,26.304,20.292,62.804,25.553,96.539c2.669,17.045,3.933,33.383,2.894,47.335c7.443,1.567,14.939-2.314,21.344-5.274
					c13.559-83.294,19.451-151.399-0.815-230.526c-6.405-25.028-29.866-22.149-37.876-45.455
					c-9.509-27.698-13.849-83.861-17.268-137.589c-0.986-15.205-1.88-30.225-2.801-44.34c-2.631-39.994-5.471-72.798-10.731-82.504
					c-9.548-17.585-26.987,15.047-44.518,7.377l-23.974,3.723l-5.616,0.867L2002.757,937.513z"/>
			</g>
		</g>
		<g>
			<g>
				<path style="fill:#F48E69;" d="M1834.356,844.647c16.632,10.572,36.32,5.812,54.547,13.622
					c13.752-17.142,34.584-53.833,42.416-69.963c4.544-9.352,8.679-18.306,12.431-26.866
					c86.365-196.856-27.82-189.419-45.278-147.976c-12.662,30.046-21.694,89.721-34.62,141.067
					C1858.352,776.414,1847.836,831.824,1834.356,844.647z"/>
				<path style="fill:#BC2E1B;" d="M1863.852,754.532c15.808,2.816,32.738,3.618,48.58,4.344c6.61,0.309,13.189,0.309,19.789,0.727
					c3.092,0.187,7.359,1.145,11.529,1.839c86.365-196.856-27.82-189.419-45.278-147.976
					C1885.809,643.511,1876.778,703.186,1863.852,754.532z"/>
			</g>
			<path style="fill:#D88916;" d="M2031.04,427.789c0.147,8.47-16.606,10.66-22.319,10.941c-1.925-5.316-2.164-11.411-3.555-16.904
				c-0.334-1.321-0.81-9.154-1.305-9.163L2031.04,427.789z"/>
			<path style="fill:#BC2E1B;" d="M1927.138,710.75c24.442,48.584,65.421,179.582,61.416,236.318c0,0,17.337,11.002,49.504,5.941
				c33.936-5.325,60.844-12.896,83.539-29.088c-7.03-34.392-5.644-128.019,2.805-182.895c2.607-16.875,5.874-30.089,9.769-36.79
				c21.594-37.12,19.031-130.635-4.335-138.708c-4.62-1.596-7.721-0.914-21.253-3.785c-0.066-0.011-0.143-0.034-0.209-0.044
				c-6.909-1.476-14.346-3.004-21.66-4.501c-2.102-0.416-4.214-0.86-6.283-1.275c-0.45-0.09-0.901-0.188-1.352-0.274
				c-0.418-0.089-0.836-0.166-1.254-0.256c-1.057-0.209-2.091-0.417-3.125-0.627c-2.133-0.439-4.245-0.867-6.27-1.286
				c-13.355-2.708-23.982-4.906-26.722-5.755c-6.181-1.891-16.533-3.244-13.134-5.16c-1.067,0.43-33.453,13.467-64.619,28.341
				c-2.717,1.298-5.412,2.621-8.096,3.939c-2.036,1.002-4.081,2.012-6.072,3.036c-0.033,0.01-0.055,0.034-0.089,0.046
				c-2.53,1.275-5.027,2.561-7.447,3.827c-7.898,4.181-15.126,8.285-20.979,12.113c-0.363,0.232-0.716,0.472-1.056,0.703
				c-7.096,4.73-11.99,9.011-13.376,12.386C1897.886,628.785,1916.599,689.835,1927.138,710.75z"/>
			<g>
				<g>
					<g>
						<path style="fill:#F48E69;" d="M2047.731,549.424c2.871,37.702-21.741,65.392-34.238,71.682
							c-20.991,10.556-44.04-52-40.942-54.249c0.42-0.305,0.843-0.611,1.276-0.91c5.684-4.094,11.687-8.485,11.541-12.215
							c-0.25-6.462-0.968-12.762-2.299-18.539c-0.652-2.843-1.452-5.555-2.421-8.092c-2.483-6.609-6.072-12.082-11.05-15.646
							l34.442-49.978c1.219,1.594,5.9,13.804,11.992,28.67c0.153,0.375,0.31,0.756,0.465,1.139
							c3.529,8.616,7.513,18.046,11.55,26.783c0.746,1.613,1.492,3.197,2.232,4.743
							C2036.628,536.045,2042.946,546.858,2047.731,549.424z"/>
					</g>
					<g>
						<path style="fill:#FFFFFF;" d="M2047.73,549.418c2.872,37.7-21.74,65.387-34.238,71.682
							c-20.992,10.552-44.04-52.002-40.941-54.25l0.099-0.074c6.09,17.991,23.069,51.544,38.886,43.596
							c11.429-5.755,32.994-29.409,34.395-62.24C2046.546,548.678,2047.149,549.103,2047.73,549.418z"/>
					</g>
					<path style="fill:#E86A43;" d="M2028.047,518.069c-7.692,31.436-28.38,56.698-34.451,57.31
						c-2.599,0.252-13.454-4.878-19.768-9.431c5.684-4.094,11.687-8.485,11.541-12.215c-0.25-6.462-0.968-12.762-2.299-18.539
						c-0.652-2.843-1.452-5.555-2.421-8.092l35.848-35.815C2020.025,499.903,2024.01,509.333,2028.047,518.069z"/>
				</g>
				<g>
					<g>
						<path style="fill:#F48E69;" d="M1904.518,468.276c5.781,1.5,9.675,19.611,9.675,19.611c0.717,8.527,4.722,16.364-5.929,13.41
							c-7.557-2.095-16.83-10.115-18.888-17.773C1886.776,473.847,1895.574,465.95,1904.518,468.276z"/>
						<path style="fill:#E86A43;" d="M1891.258,478.561c0.137-0.594,0.346-1.174,0.593-1.733c0.498-1.12,1.146-2.174,1.923-3.136
							c0.778-0.965,1.686-1.846,2.771-2.528c1.077-0.685,2.371-1.154,3.742-1.145c1.373-0.002,2.715,0.519,3.811,1.271
							c1.109,0.757,2.01,1.718,2.795,2.73c1.562,2.044,2.665,4.314,3.626,6.609l-1.425,1.839c0.017,0.021-0.106,0.044-0.247,0.11
							c-0.143,0.062-0.309,0.153-0.474,0.26c-0.328,0.213-0.656,0.491-0.918,0.78c-0.262,0.281-0.472,0.618-0.494,0.78
							c-0.014,0.107,0.031-0.008,0.047,0.032c0.02,0.061,0.045,0.059,0.056,0.038c0.012-0.02,0.021-0.033,0.07-0.013
							c0.05,0.019,0.145,0.06,0.273,0.101c0.256,0.086,0.647,0.157,1.066,0.197c0.424,0.045,0.889,0.058,1.379,0.059l0.765-0.007
							l0.419-0.004l0.461,0.01l-0.426,4.58l-0.339-0.059l-0.385-0.05l-0.839-0.114c-0.578-0.086-1.178-0.19-1.81-0.348
							c-0.63-0.163-1.287-0.361-1.997-0.744c-0.352-0.195-0.719-0.439-1.073-0.772c-0.351-0.332-0.686-0.772-0.899-1.281
							c-0.215-0.506-0.296-1.048-0.283-1.521c-0.014-0.497,0.167-1.147,0.375-1.523c0.428-0.817,0.945-1.3,1.471-1.741
							c0.534-0.427,1.092-0.771,1.711-1.053c0.132-0.061,0.27-0.115,0.412-0.168c-0.591-1.689-1.291-3.33-2.216-4.806
							c-0.6-0.956-1.298-1.845-2.133-2.536c-0.823-0.688-1.792-1.172-2.843-1.275c-1.05-0.112-2.155,0.151-3.167,0.664
							c-1.014,0.511-1.942,1.246-2.766,2.086c-0.822,0.841-1.544,1.798-2.13,2.833c-0.29,0.52-0.547,1.062-0.736,1.628
							c-0.183,0.563-0.329,1.166-0.2,1.76C1891.038,479.786,1891.127,479.15,1891.258,478.561z"/>
					</g>
					<g>
						<path style="fill:#682C19;" d="M1902.659,370.948c-9.036,4.689-27.3,12.949-29.694,22.811
							c-4.424,18.229,21.152,54.12,24.551,62.075c-1.085-4.608,17.501-67.169,31.392-69.15L1902.659,370.948z"/>
					</g>
					<path style="fill:#F48E69;" d="M2017.575,484.395c-4.18-20.93-23.982-85.803-38.476-98.245
						c-16.155-13.864-42.431-21.27-62.711-10.867c-26.294,13.482-21.81,67.674-20.92,73.514c0.38,2.499,2.763,8.044,4.948,18.124
						c1.002,4.628-0.415,14.803,0.818,20.305c7.895,35.212,37.389,62.749,36.018,75.951c-0.781,7.501,14.039,8.001,28.469,5.044
						C2013.726,558.385,2021.855,505.829,2017.575,484.395z"/>
					<g>
						<path style="fill:#E86A43;" d="M1907.783,479.967c0,0,0.458-0.171,1.271-0.418c0.405-0.117,0.897-0.272,1.464-0.414
							c0.571-0.148,1.208-0.322,1.88-0.537c0.675-0.209,1.4-0.435,2.169-0.642c0.771-0.186,1.571-0.511,2.407-0.753
							c0.833-0.269,1.705-0.494,2.562-0.818c0.864-0.307,1.75-0.591,2.633-0.879c0.871-0.327,1.74-0.658,2.61-0.955
							c0.872-0.289,1.703-0.646,2.524-0.953c0.815-0.326,1.634-0.569,2.377-0.892c0.75-0.306,1.469-0.57,2.14-0.812
							c1.344-0.482,2.442-0.945,3.25-1.205c0.801-0.276,1.276-0.41,1.276-0.41s-0.346,0.341-0.994,0.897
							c-0.323,0.271-0.713,0.612-1.179,0.972c-0.459,0.377-0.984,0.79-1.596,1.177c-0.601,0.408-1.255,0.846-1.962,1.289
							c-0.698,0.458-1.487,0.837-2.288,1.268c-0.811,0.412-1.636,0.864-2.534,1.205c-0.878,0.375-1.786,0.723-2.69,1.079
							c-0.931,0.287-1.859,0.575-2.784,0.836c-0.911,0.288-1.846,0.447-2.742,0.618c-0.903,0.155-1.75,0.356-2.601,0.41
							c-0.843,0.079-1.637,0.123-2.366,0.165c-0.364,0.013-0.713,0.056-1.042,0.047c-0.328-0.015-0.641-0.031-0.934-0.04
							c-0.584-0.02-1.098-0.067-1.519-0.097C1908.269,480.037,1907.783,479.967,1907.783,479.967z"/>
						<g>
							<path style="fill:#E86A43;" d="M1911.714,434.587c-4.595,0.683-10.206,2.939-13.694,6.163
								c1.76,4.711,6.795,28.856,7.603,34.906l28.405-6.534C1935.389,466.176,1928.838,432.041,1911.714,434.587z"/>
							<g>
								<path style="fill:#FFFFFF;" d="M1905.569,475.496c0.724,0.264,2.117,0.371,3.955,0.306c0.349-0.007,0.717-0.026,1.109-0.051
									c1.473-0.094,3.174-0.274,4.987-0.549c1.314-0.203,2.679-0.441,4.068-0.741c4.768-0.985,9.814-2.545,13.688-4.661
									c0.405-0.202,0.786-0.421,1.163-0.655c-0.165-0.133-0.328-0.265-0.484-0.412c-4.975-4.309-11.531-13.836-17.582-13.886
									c-11.435-0.08-11.47,13.71-11.101,18.801C1905.462,474.783,1905.569,475.496,1905.569,475.496z"/>
								<g>
									<path style="fill:#663933;" d="M1906.883,470.822c0.412,2.01,1.378,3.731,2.641,4.979c0.349-0.007,0.717-0.026,1.109-0.051
										c1.473-0.094,3.174-0.274,4.987-0.549c1.314-0.203,2.679-0.441,4.068-0.741c0.99-1.787,1.363-4.079,0.875-6.435
										c-0.081-0.379-0.172-0.75-0.294-1.099c-0.462-1.452-1.215-2.712-2.162-3.693c-1.655-1.735-3.886-2.609-6.095-2.148
										C1908.239,461.855,1905.938,466.22,1906.883,470.822z"/>
									<path style="fill:#23100C;" d="M1908.349,472.162c0.319,1.558,1.182,2.847,2.284,3.589
										c1.473-0.094,3.174-0.274,4.987-0.549c1.015-1.138,1.482-2.914,1.103-4.752c-0.097-0.459-0.234-0.889-0.412-1.299
										c-0.335-0.744-0.799-1.381-1.345-1.875c-0.976-0.892-2.231-1.327-3.466-1.078
										C1909.177,466.68,1907.778,469.345,1908.349,472.162z"/>
									<path style="fill:#FFFFFF;" d="M1918.833,462.508c-1.875,1.655-6.242,8.197-6.242,8.197
										c2.974-1.212,6.204-2.409,9.082-4.859C1920.883,464.961,1919.629,463.38,1918.833,462.508z"/>
								</g>
								<path style="fill:#542316;" d="M1934.054,468.733c-4.978-4.308-10.694-9.259-16.748-9.306
									c-8.821-0.064-11.357,5.406-11.882,10.245c-0.002,0.038-0.011,0.089-0.01,0.137c-0.14,1.38-0.118,2.71-0.04,3.837
									c-0.205-1.428-3.159-22.422,10.38-22.327c2.122,0.018,4.376,1.592,6.636,3.835
									C1926.591,459.322,1930.793,465.792,1934.054,468.733z"/>
							</g>
						</g>
					</g>
					<g>
						<path style="fill:#E86A43;" d="M1990.656,459.163c0,0-0.488,0.053-1.322,0.2c-0.415,0.073-0.925,0.16-1.497,0.287
							c-0.572,0.129-1.223,0.26-1.918,0.37c-0.697,0.119-1.447,0.244-2.226,0.406c-0.769,0.18-1.633,0.25-2.489,0.412
							c-0.862,0.135-1.742,0.327-2.655,0.425c-0.907,0.115-1.827,0.262-2.746,0.402c-0.925,0.1-1.849,0.198-2.757,0.321
							c-0.91,0.139-1.813,0.195-2.684,0.292c-0.875,0.079-1.719,0.228-2.522,0.274c-0.808,0.067-1.57,0.156-2.278,0.241
							c-1.416,0.176-2.604,0.256-3.443,0.391c-0.838,0.111-1.322,0.211-1.322,0.211s0.464,0.148,1.289,0.348
							c0.413,0.097,0.914,0.225,1.492,0.336c0.578,0.129,1.235,0.262,1.956,0.33c0.719,0.093,1.5,0.191,2.33,0.268
							c0.83,0.095,1.704,0.075,2.615,0.1c0.909,0.001,1.852,0.034,2.803-0.064c0.955-0.066,1.921-0.163,2.889-0.252
							c0.96-0.163,1.919-0.326,2.86-0.509c0.944-0.151,1.851-0.434,2.729-0.682c0.874-0.269,1.722-0.474,2.506-0.809
							c0.785-0.308,1.518-0.627,2.188-0.919c0.329-0.151,0.659-0.272,0.948-0.429c0.289-0.16,0.56-0.314,0.814-0.456
							c0.514-0.28,0.953-0.556,1.316-0.772C1990.254,459.445,1990.656,459.163,1990.656,459.163z"/>
						<g>
							<path style="fill:#E86A43;" d="M1964.098,420.548c-4.54,0.976-9.995,3.583-13.27,7.023c2.054,4.59,8.621,28.365,9.813,34.35
								l27.934-8.336C1989.743,450.563,1981.024,416.916,1964.098,420.548z"/>
							<g>
								<path style="fill:#FFFFFF;" d="M1960.728,461.586c0.425,0.029,0.871,0.055,1.323,0.042c2.03,0.025,4.219-0.165,6.447-0.524
									c2.537-0.393,5.129-0.994,7.585-1.686c6.42-1.822,11.923-4.329,13.211-5.76c0,0-0.24-0.68-0.698-1.725
									c-2.042-4.681-8.533-16.852-18.592-11.432c-2.267,1.228-3.809,4.013-5.019,7.274c-0.499,1.346-0.948,2.78-1.358,4.227
									c0.002,0.012,0.002,0.012-0.007,0.027c-0.944,3.254-1.717,6.538-2.672,8.974
									C1960.878,461.199,1960.798,461.401,1960.728,461.586z"/>
								<g>
									<path style="fill:#663933;" d="M1963.92,455.092c0.706,2.78,2.465,4.964,4.577,6.011c2.537-0.393,5.129-0.994,7.585-1.686
										c1.509-1.94,2.103-4.82,1.373-7.737c-0.041-0.155-0.077-0.299-0.127-0.442c-0.368-1.247-0.956-2.363-1.694-3.289
										c-1.78-2.294-4.462-3.469-7.024-2.828c-1.512,0.381-2.757,1.343-3.625,2.654c-0.786,1.178-1.263,2.638-1.358,4.227
										c0.002,0.012,0.002,0.012-0.007,0.027C1963.564,453.013,1963.662,454.055,1963.92,455.092z"/>
									<path style="fill:#23100C;" d="M1974.607,454.181c0.702,2.79-0.581,5.522-2.869,6.096
										c-2.286,0.576-4.712-1.218-5.415-4.008c-0.704-2.791,0.581-5.521,2.869-6.099
										C1971.479,449.596,1973.904,451.388,1974.607,454.181z"/>
									<path style="fill:#FFFFFF;" d="M1977.78,445.982c-2.043,1.447-7.086,7.479-7.086,7.479
										c3.087-0.883,6.427-1.728,9.551-3.856C1979.555,448.641,1978.475,446.935,1977.78,445.982z"/>
								</g>
								<path style="fill:#542316;" d="M1960.953,461.001c2.384-6.136,5.121-13.186,10.451-16.059
									c7.766-4.183,12.566-0.534,15.294,3.496c0.02,0.034,0.049,0.075,0.072,0.117c0.769,1.156,1.371,2.34,1.829,3.372
									c-0.486-1.358-7.692-21.299-19.614-14.879c-1.87,1.009-3.124,3.452-4.075,6.495
									C1963.145,449.189,1962.458,456.877,1960.953,461.001z"/>
							</g>
						</g>
					</g>
					<g>
						<path style="fill:#682C19;" d="M1889.121,446.411c-1.073,1.071,12.868-2.804,12.868-2.804s-0.57-2.776-0.083-3.708
							c0.698,0.495,1.343,2.753,1.718,3.546c3.97-0.967,7.227-2.114,17.078-5.755c-0.453-1.777-4.814-7.018-6.822-7.628
							C1899.744,434.714,1892.759,442.779,1889.121,446.411z"/>
					</g>
					<g>
						<path style="fill:#682C19;" d="M1978.036,414.823c1.407,0.563-12.932,2.479-12.932,2.479s-0.569-2.776-1.379-3.44
							c-0.452,0.729-0.158,3.058-0.19,3.937c-4.032,0.667-7.476,0.894-17.966,1.418c-0.282-1.815,1.669-8.345,3.275-9.698
							C1963.675,408.245,1973.267,412.915,1978.036,414.823z"/>
					</g>
					<g>
						<path style="fill:#E86A43;" d="M1939.145,495.976c-2.701-0.564-11.632-5.106-12.504,1.274
							c-1.007,7.351,25.542,13.483,33.717-7.677C1955.113,494.467,1945.843,497.37,1939.145,495.976z"/>
						<path style="fill:#E86A43;" d="M1928.356,440.021c1.991,3.415,19.199,40.886,1.629,55.056l10.936,1.859
							C1946.53,485.278,1942.705,455.255,1928.356,440.021z"/>
					</g>
					<g>
						<g>
							<path style="fill:#682C19;" d="M1992.351,497.47c-0.067,3.909-0.637,8.211-1.813,12.489
								c-0.279,0.995-0.591,1.998-0.922,2.992c-0.25,0.701-0.507,1.403-0.786,2.1c-0.294,0.729-0.605,1.442-0.929,2.159v0.008
								c-4.133,8.947-11.369,16.683-22.756,19.005c-5.301,1.084-9.749,1.398-13.505,1.167c-2.106-0.122-4.001-0.416-5.696-0.841
								c-11.596-2.894-14.252-11.736-16.405-13.295c0,0,1.219-0.445,3.523-1.308c1.847-0.698,4.387-1.674,7.566-2.911
								C1951.423,514.836,1969.528,507.544,1992.351,497.47z"/>
							<g>
								<path style="fill:#FFFFFF;" d="M1992.351,497.47c-0.067,3.909-0.637,8.211-1.813,12.489
									c-0.279,0.995-0.591,1.998-0.922,2.992c-14.889,7.253-37.219,15.856-43.154,16.45c-5.221,0.522-9.916-3.389-13.399-7.457
									c1.847-0.698,4.387-1.674,7.566-2.911C1951.423,514.836,1969.528,507.544,1992.351,497.47z"/>
								<path style="fill:#EFEFEF;" d="M1990.539,509.959c-0.279,0.995-0.591,1.998-0.922,2.992
									c-14.889,7.253-37.219,15.856-43.154,16.45c-5.221,0.522-9.916-3.389-13.399-7.457c1.847-0.698,4.387-1.674,7.566-2.911
									c2.219,2.441,4.617,4.488,5.929,4.505C1951.482,523.623,1973.065,517.413,1990.539,509.959z"/>
							</g>
							<g>
								<path style="fill:#FFFFFF;" d="M1988.83,515.051c-0.294,0.729-0.605,1.442-0.929,2.159v0.008
									c-4.133,8.947-11.369,16.683-22.756,19.005c-5.301,1.084-9.749,1.398-13.505,1.167c-2.106-0.122-4.001-0.416-5.696-0.841
									c0.56-1.744,1.47-3.293,2.884-4.437C1953.195,528.582,1975.889,518.882,1988.83,515.051z"/>
								<path style="fill:#EFEFEF;" d="M1988.83,515.051c-0.294,0.729-0.605,1.442-0.929,2.159v0.008
									c-15.124,5.799-32.593,15.288-35.567,18.321c-0.325,0.332-0.551,0.988-0.694,1.851c-2.106-0.122-4.001-0.416-5.696-0.841
									c0.56-1.744,1.47-3.293,2.884-4.437C1953.195,528.582,1975.889,518.882,1988.83,515.051z"/>
							</g>
							<path style="fill:#E86A43;" d="M1965.48,537.7l-0.03,0.005c-5.107,1.047-9.785,1.449-13.904,1.198
								c-2.122-0.128-4.133-0.427-5.97-0.889c-9.227-2.301-13.107-8.091-15.426-11.551c-0.574-0.861-1.173-1.75-1.497-1.983
								l-2.311-1.674l2.679-0.977c0.003-0.002,1.217-0.445,3.512-1.304c1.839-0.696,4.378-1.669,7.546-2.904
								c11.005-4.279,28.898-11.49,51.661-21.539l2.165-0.954l-0.041,2.366c-0.069,4.226-0.717,8.674-1.864,12.862
								c-0.282,0.997-0.598,2.029-0.947,3.073c-0.266,0.749-0.53,1.47-0.819,2.186c-0.241,0.596-0.49,1.184-0.752,1.768l0.003,0.009
								l-0.208,0.459C1985.791,525.4,1978.831,534.966,1965.48,537.7z M1932.089,523.923c0.183,0.264,0.373,0.552,0.576,0.855
								c2.212,3.297,5.549,8.282,13.647,10.299c1.658,0.417,3.479,0.686,5.418,0.802c3.855,0.236,8.267-0.148,13.115-1.142
								l0.027-0.005c11.958-2.447,18.3-11.016,21.535-17.884l0.116-0.269c0.318-0.697,0.617-1.385,0.902-2.095
								c0.272-0.675,0.521-1.357,0.765-2.038c0.324-0.973,0.626-1.959,0.891-2.897c0.866-3.158,1.429-6.475,1.652-9.713
								c-21.757,9.561-38.885,16.459-49.553,20.608c-3.184,1.239-5.732,2.217-7.582,2.916
								C1933.029,523.573,1932.524,523.762,1932.089,523.923z"/>
						</g>
					</g>
					<g>
						<g>
							<path style="fill:#682C19;" d="M1983.038,357.709c-100.827-16.558-98.928,4.055-108.169,19.122
								c-13.162,21.457-3.636,48.054,10.922,58.351c24.716-8.507-31.401-15.109,32.192-35.223
								c12.427-3.933,47.25-1.966,59.043,7.743c5.816,4.785,27.146,35.007,28.652,42.687c3.724-1.661,7.715-3.522,11.734-4.352
								c-1.116-7.105,1.634-11.797,0.634-30.603C2015.882,374.687,2013.048,362.638,1983.038,357.709z"/>
						</g>
						<path style="opacity:0.4;fill:#682C19;" d="M1975.171,357.728c1.52,2.371,3.561,4.996,4.388,7.7
							c-3.358-0.21-6.938,0.013-10.109,0.236c4.003,1.815,5.893,7.739,8.775,11.169c-5.74-7.508-58.49,4.436-67.205,9.878
							c0,0,69.539-7.536,76.588,25.79c0.861-3.8,0.921-10.792-0.126-14.781c3.588,0.532,8.259,3.133,11.202,5.367
							c1.951-8.36,2.316-15.111-0.098-23.58c2.687-1.189,6.436-0.704,9.069,0.58
							C2008.366,366.417,1985.975,357.225,1975.171,357.728z"/>
					</g>
					<g>
						<path style="fill:#F48E69;" d="M2006.267,438.198c-5.357,4.996,1.023,26.803,1.023,26.803
							c4.209,9.614,4.466,20.404,14.228,10.999c6.925-6.674,12.24-20.742,9.985-30.204
							C2028.656,433.841,2014.554,430.467,2006.267,438.198z"/>
						<path style="fill:#E86A43;" d="M2026.576,441.546c-0.497-0.564-1.061-1.064-1.653-1.525c-1.191-0.915-2.506-1.674-3.907-2.258
							c-1.398-0.587-2.893-1.005-4.464-1.11c-1.559-0.106-3.231,0.145-4.703,0.956c-1.481,0.8-2.626,2.145-3.368,3.598
							c-0.756,1.46-1.166,3.024-1.415,4.574c-0.494,3.117-0.356,6.213-0.054,9.249l2.613,1.15c-0.009,0.028,0.138-0.019,0.329-0.029
							c0.189-0.015,0.422-0.015,0.66,0.003c0.482,0.039,0.998,0.148,1.45,0.307c0.445,0.15,0.867,0.39,0.985,0.554
							c0.08,0.105-0.036,0.007-0.031,0.06c0.013,0.076-0.015,0.09-0.036,0.073c-0.024-0.016-0.042-0.025-0.085,0.028
							c-0.045,0.05-0.121,0.146-0.236,0.266c-0.226,0.241-0.604,0.548-1.031,0.838c-0.434,0.293-0.93,0.58-1.456,0.867l-0.828,0.439
							l-0.455,0.242l-0.494,0.277l3.137,4.689l0.333-0.259l0.382-0.283l0.84-0.611c0.573-0.43,1.162-0.894,1.746-1.431
							c0.587-0.546,1.179-1.144,1.72-1.974c0.267-0.415,0.524-0.89,0.709-1.456c0.185-0.564,0.288-1.234,0.222-1.91
							c-0.065-0.672-0.295-1.299-0.582-1.804c-0.278-0.542-0.851-1.138-1.297-1.424c-0.938-0.632-1.779-0.849-2.602-1.017
							c-0.825-0.153-1.628-0.196-2.461-0.134c-0.18,0.012-0.359,0.035-0.541,0.06c-0.351-2.168-0.553-4.348-0.418-6.479
							c0.09-1.381,0.321-2.748,0.814-3.978c0.49-1.224,1.253-2.314,2.326-3.039c1.067-0.731,2.411-1.096,3.802-1.13
							c1.392-0.046,2.823,0.203,4.201,0.628c1.376,0.431,2.715,1.039,3.953,1.814c0.615,0.392,1.207,0.827,1.741,1.325
							c0.525,0.5,1.037,1.066,1.25,1.781C2027.53,442.736,2027.064,442.103,2026.576,441.546z"/>
					</g>
				</g>
				<path style="fill:#23100C;" d="M1903.995,494.725h-0.002c-9.087,0-17.139-5.79-20.037-14.411
					c-0.025-0.069-0.045-0.146-0.064-0.223l-0.281-1.1l1.043-0.474l38.88-13.077l0.402,1.132c0.049,0.118,0.078,0.189,0.103,0.262
					c1.8,5.353,1.407,11.087-1.104,16.147c-2.513,5.059-6.844,8.836-12.197,10.636
					C1908.55,494.353,1906.283,494.725,1903.995,494.725z M1886.607,480.438c2.828,7.144,9.688,11.846,17.387,11.846h0.002
					c2.021,0.001,4.028-0.329,5.963-0.982c4.735-1.592,8.567-4.932,10.789-9.406c2.079-4.188,2.516-8.897,1.259-13.364
					L1886.607,480.438z"/>
				<path style="fill:#23100C;" d="M1960.342,475.744c0,0-0.001,0-0.002,0c-9.087,0-17.139-5.79-20.037-14.411
					c-0.024-0.069-0.046-0.146-0.066-0.223l-0.281-1.099l1.043-0.475l38.88-13.077l0.402,1.132c0.05,0.118,0.078,0.19,0.103,0.262
					c1.8,5.353,1.408,11.089-1.103,16.147c-2.513,5.058-6.844,8.836-12.198,10.636
					C1964.897,475.372,1962.628,475.744,1960.342,475.744z M1942.953,461.458c2.828,7.143,9.688,11.843,17.387,11.843
					c0,0,0.001,0,0.002,0c2.022,0.002,4.027-0.328,5.963-0.981c4.735-1.592,8.567-4.931,10.789-9.407
					c2.079-4.186,2.516-8.896,1.26-13.363L1942.953,461.458z"/>
				<path style="fill:#23100C;" d="M1923.457,467.358l-2.288-0.859c1.084-2.888,4.034-5.452,7.894-6.862
					c4.538-1.656,9.306-1.391,13.079,0.732l-1.196,2.129c-3.152-1.771-7.177-1.981-11.045-0.567
					C1926.749,463.081,1924.281,465.161,1923.457,467.358z"/>
			</g>
			<g>
				<path style="fill:#F5A838;" d="M1963.387,346.134c-4.575-7.302-14.55-16.799-33.019-11.683
					c-18.477,5.111-13.205,20.877-10.53,23.117c2.672,2.234,9.961,6.685,9.961,6.685l18.369-2.261L1963.387,346.134z"/>
				<path style="fill:#F5A838;" d="M1867.223,446.522c1.813-3.137,4.311-4.557,9.766-6.51c1.983-0.731,4.391-1.517,7.282-2.492
					c3.88-1.303,8.684-2.948,14.64-5.187c25.491-9.579,53.038-15.36,76.564-16.38c23.776-1.068,44.111,4.573,53.42,12.642
					c2.134,0.674-0.77-12.728-4.752-26.287c-1.325-4.458-2.758-8.947-4.19-12.974c-0.277-0.905-0.596-1.755-0.915-2.603
					c-2.376-6.324-5.471-12.329-9.185-17.83c-13.833-20.225-36.848-33.836-67.936-32.726c-3.53,0.115-7.162,0.421-10.877,0.937
					c-2.069,0.282-4.177,0.625-6.318,1.046c-0.152,0.052-0.331,0.012-0.422,0.046c-4.208,0.833-8.51,1.91-13.009,3.225
					c-0.251,0.066-0.498,0.143-0.759,0.21c-1.69,0.528-3.288,1.06-4.88,1.659c-9.859,3.543-14.354,5.821-20.825,11.317
					c-4.356,3.705-5.719,9.188-6.142,9.634c-16.333,14.756-20.838,28.714-21.326,45.618
					C1856.702,430.776,1863.683,447.51,1867.223,446.522z"/>
				<path style="fill:#FFE02C;" d="M1864.689,407.111c0.492-16.911,8.129-40.039,22.772-55.114c0.413-0.436,0.868-0.832,1.328-1.218
					c6.429-5.546,16.274-8.666,26.129-12.218c1.588-0.596,3.197-1.134,4.878-1.644c3.528-1.054,7.217-1.717,10.572-2.466
					c-3.074,1.567-5.764,4.014-6.934,5.172c-9.795,9.723-13.289,29.983-13.694,43.949c-0.708,22.256,7.324,41.07,11.088,40.008
					l-14.59,5.993c-22.508,8.459-28.325,8.352-31.684,14.2C1871.014,444.764,1864.035,428.011,1864.689,407.111z"/>
				<path style="fill:#F7C52C;" d="M2030.834,430.302c-8.926-9.513-31.576-15.42-55.364-14.347
					c-23.511,1.028-51.056,6.795-76.559,16.378c-22.509,8.452-28.327,8.349-31.677,14.199c-3.545,0.994-10.525-15.759-9.862-36.655
					c0.481-16.923,4.521-30.694,20.858-45.457c-12.206,16.96-4.551,47.944-1.538,57.128c1.208,3.67,18.736-6.48,79.428-12.666
					C2004.461,403.949,2034.676,412.702,2030.834,430.302z"/>
				<path style="fill:#FFE536;" d="M1829.259,451.319c0,0,29.257-3.922,39.321-4.749c0,0,1.481-2.522,7.458-6.589
					c5.104-3.454,13.463-8.031,26.972-13.106c7.839-2.962,20.557-5.226,32.453-6.86c15.602-2.166,29.813-3.201,29.813-3.201
					l-1.888-8.314c0,0-10.311-2.955-32.454-0.539c-14.932,1.619-35.239,5.673-61.39,14.733c-3.427,1.179-6.96,2.462-10.59,3.826
					c-23.897,8.983-33.075,14.389-33.937,17.552C1824.627,445.484,1829.259,451.319,1829.259,451.319z"/>
				<path style="fill:#D88916;" d="M1861.18,432.45c72.391-27.216,104.923-15.771,104.923-15.771s-31.331,5.705-60.869,16.118
					c-19.401,6.837-11.449,16.215-11.449,16.215C1856.302,458.417,1788.794,459.653,1861.18,432.45z"/>
			</g>
		</g>
		<g>
			<g>
				<path style="fill:#23477C;" d="M1940.074,719.885l157.855,0.638c4.389,9.802,12.104,16.721,26.473,20.502
					c-8.449,54.877,0,152.591,0,188.133c-22.694,16.195-51.257,34.682-85.194,40.006c-32.166,5.06-51.831-4.062-51.831-4.062
					C1991.142,911.762,1945.945,782.826,1940.074,719.885z"/>
			</g>
		</g>
		<path style="fill:#23477C;" d="M2053.602,725.678c0.044,13.688,0.087,27.374,0.087,41.047h25.302
			c0-13.707-0.045-27.417-0.089-41.136c-0.098-26.809-0.197-54.535,0.089-81.765c0.275-26.832,4.311-45.129,13.936-63.128
			c4.237-7.943,9.297-14.159,15.447-18.999c-6.909-1.476-14.346-3.004-21.66-4.501c-2.102-0.416-4.214-0.86-6.283-1.275
			c-0.45-0.09-0.901-0.188-1.352-0.274c-3.124,4.002-5.941,8.381-8.471,13.123c-11.54,21.596-16.6,43.963-16.919,74.79
			C2053.404,670.967,2053.503,698.781,2053.602,725.678z"/>
		<path style="fill:#23477C;" d="M1924.475,653.518c6.05,26.726,12.562,53.777,18.866,79.939c3.201,13.302,6.403,26.592,9.56,39.891
			l24.619-5.841c-3.169-13.323-6.37-26.644-9.581-39.968c-6.281-26.086-12.771-53.051-18.789-79.611
			c-5.918-26.171-6.215-44.908-1.012-64.645c0.494-1.869,1.044-3.664,1.65-5.402c-0.033,0.01-0.055,0.034-0.089,0.046
			c-2.53,1.275-5.027,2.561-7.447,3.827c-7.898,4.181-15.126,8.285-20.979,12.113c-0.363,0.232-0.716,0.472-1.056,0.703
			C1917.963,612.427,1919.37,630.964,1924.475,653.518z"/>
		<g>
			<path style="fill:#F48E69;" d="M2075,855.83c21.164,4.757,42.782,1.648,64.57,2.951c7.86-22.875,26.404-68.047,28.51-87.668
				c1.222-11.378,2.173-22.193,2.871-32.457c16.151-236.053-99.347-185.824-101.997-136.399c-1.927,35.836,10.94,101.005,16.671,159
				C2088.077,785.969,2084.188,837.529,2075,855.83z"/>
			<path style="fill:#BC2E1B;" d="M2085.626,761.256c17.422-2.969,35.255-8.445,51.933-13.59c6.963-2.143,13.776-4.595,20.769-6.62
				c3.27-0.958,8.046-1.556,12.625-2.39c16.151-236.053-99.347-185.824-101.997-136.399
				C2067.028,638.092,2079.895,703.261,2085.626,761.256z"/>
		</g>
		<path style="fill:#F48E69;" d="M2098.115,813.872c-50.61-6.568-95.599,7.113-162.623-1.694l6.347,20.486
			c81.716,40.173,180.733,59.646,198.634,25.259C2125.452,839.399,2120.997,825.786,2098.115,813.872z"/>
		<path style="fill:#173D6B;" d="M2099.499,1045.102c6.615,4.801,21.62,2.619,34.1,0.554c-0.986-15.205-1.88-30.225-2.801-44.34
			c-11.008-0.932-25.092,1.568-34.877,2.026C2094.961,1014.246,2087.767,1036.62,2099.499,1045.102z"/>
		<path style="fill:#173D6B;" d="M1982.333,1047.748c3.288-0.356,6.103-1.171,8.141-2.646c11.718-8.482,4.538-30.856,3.564-41.76
			c-2.932-0.144-6.274-0.459-9.784-0.828C1983.371,1017.298,1982.793,1032.542,1982.333,1047.748z"/>
		<g>
			<g>
				<g>
					<path style="fill:#1D2021;" d="M630.119,1422.995c-15.985,0-28.945,18.104-28.945,40.443c0,22.333,12.959,40.434,28.945,40.434
						h40.895v-80.877H630.119z"/>
					<path style="fill:#252728;" d="M698.286,1463.438c0,22.333-12.961,40.434-28.946,40.434c-15.986,0-28.944-18.101-28.944-40.434
						c0-22.339,12.958-40.443,28.944-40.443C685.325,1422.995,698.286,1441.099,698.286,1463.438z"/>
					<path style="fill:#1D2021;" d="M680.774,1463.438c0,8.818-5.12,15.971-11.434,15.971c-6.315,0-11.433-7.152-11.433-15.971
						c0-8.823,5.118-15.975,11.433-15.975C675.654,1447.463,680.774,1454.615,680.774,1463.438z"/>
				</g>
				<g>
					<path style="fill:#1D2021;" d="M565.055,1422.995c-15.984,0-28.945,18.104-28.945,40.443c0,22.333,12.961,40.434,28.945,40.434
						h40.896v-80.877H565.055z"/>
					<path style="fill:#252728;" d="M633.222,1463.438c0,22.333-12.96,40.434-28.945,40.434c-15.986,0-28.944-18.101-28.944-40.434
						c0-22.339,12.958-40.443,28.944-40.443C620.262,1422.995,633.222,1441.099,633.222,1463.438z"/>
					<path style="fill:#1D2021;" d="M615.711,1463.438c0,8.818-5.12,15.971-11.434,15.971c-6.315,0-11.433-7.152-11.433-15.971
						c0-8.823,5.118-15.975,11.433-15.975C610.591,1447.463,615.711,1454.615,615.711,1463.438z"/>
				</g>
			</g>
			<g>
				<g>
					<path style="fill:#1D2021;" d="M1678.912,1388.309c-0.327,0-0.671,0-0.997,0.025c-21.747,0.748-39.216,26.299-39.216,57.745
						c0,31.901,18.007,57.786,40.21,57.793h28.256l3.44-115.56L1678.912,1388.309z"/>
					<g>
						<path style="fill:#1D2021;" d="M1705.86,1490.924c-14.524,0-27.265-20.956-27.265-44.845c0-26.251,13.814-44.36,26.716-44.807
							l0.482-0.021c14.584,0.007,27.319,20.955,27.319,44.832c0,1.014-0.028,2.034-0.071,3.048
							c-0.981,23.042-13.176,41.793-27.18,41.793H1705.86z"/>
						<g>
							<path style="fill:#252728;" d="M1705.922,1414.2c4.4,0.116,14.246,12.137,14.246,31.883c0,0.844-0.024,1.687-0.057,2.485
								c-0.816,19.106-10.476,29.412-14.245,29.412c-4.375,0-14.326-12.058-14.326-31.901c0-20.382,10.093-31.725,14.222-31.868
								L1705.922,1414.2L1705.922,1414.2z M1705.86,1388.312c-0.325,0-0.668,0-0.994,0.022
								c-21.746,0.748-39.216,26.303-39.216,57.745c0,31.908,18.007,57.786,40.21,57.793c21.372,0.004,38.825-23.957,40.114-54.196
								c0.051-1.201,0.083-2.396,0.083-3.593C1746.058,1414.176,1728.066,1388.312,1705.86,1388.312L1705.86,1388.312z"/>
						</g>
					</g>
				</g>
				<g>
					<path style="fill:#252728;" d="M1745.611,1388.309c-0.323,0-0.668,0-0.994,0.025c-21.746,0.748-39.215,26.299-39.215,57.745
						c0,31.901,18.007,57.786,40.209,57.793h27.053l-4.988-115.56L1745.611,1388.309z"/>
					<g>
						<path style="fill:#252728;" d="M1772.563,1490.924c-14.524,0-27.265-20.956-27.265-44.845
							c0-26.251,13.814-44.36,26.717-44.807l0.481-0.021c14.584,0.007,27.319,20.955,27.319,44.832c0,1.014-0.028,2.034-0.069,3.048
							c-0.982,23.042-13.177,41.793-27.18,41.793H1772.563z"/>
						<g>
							<path style="fill:#3F3F3F;" d="M1772.624,1414.2c4.4,0.116,14.245,12.137,14.245,31.883c0,0.844-0.024,1.687-0.056,2.485
								c-0.815,19.106-10.477,29.412-14.247,29.412c-4.374,0-14.324-12.058-14.324-31.901c0-20.382,10.093-31.725,14.222-31.868
								L1772.624,1414.2L1772.624,1414.2z M1772.565,1388.312c-0.327,0-0.671,0-0.997,0.022
								c-21.746,0.748-39.216,26.303-39.216,57.745c0,31.908,18.008,57.786,40.213,57.793c21.369,0.004,38.823-23.957,40.112-54.196
								c0.05-1.201,0.083-2.396,0.083-3.593C1812.76,1414.176,1794.768,1388.312,1772.565,1388.312L1772.565,1388.312z"/>
						</g>
					</g>
				</g>
			</g>
			<path style="fill:#252728;" d="M1881.566,1422.627c0,15.385-19.543,27.858-43.651,27.858H539.96
				c-24.108,0-43.651-12.473-43.651-27.858l0,0c0-15.386,19.543-27.858,43.651-27.858h1297.954
				C1862.023,1394.77,1881.566,1407.241,1881.566,1422.627L1881.566,1422.627z"/>
			<g>
				<g>
					<path style="fill:#252728;" d="M1769.23,1260.077c-4.165,0-8.402-0.685-12.562-2.112c-20.114-6.943-30.796-28.874-23.86-48.99
						l24.079-69.833c6.937-20.115,28.865-30.802,48.98-23.864c20.113,6.936,30.797,28.869,23.861,48.987l-24.08,69.829
						C1800.147,1250.055,1785.21,1260.077,1769.23,1260.077z"/>
				</g>
				<g>
					<path style="fill:#252728;" d="M1792.907,1170.176c-1.504,0-3.036-0.24-4.542-0.736c-7.574-2.507-11.683-10.682-9.177-18.254
						l111.563-337.141c2.509-7.578,10.677-11.683,18.256-9.172c7.575,2.502,11.683,10.681,9.178,18.257l-111.564,337.131
						C1804.612,1166.33,1798.969,1170.176,1792.907,1170.176z"/>
				</g>
				<path style="fill:#252728;" d="M1736.564,1333.155c0,15.894,13.003,28.896,28.894,28.896h46.572
					c15.894,0,28.896-13.001,28.896-28.896v-31.345c0-15.896,0-41.904,0-57.8v-12.836c0-15.896-13.002-28.897-28.896-28.897h-46.572
					c-15.891,0-28.894,13.001-28.894,28.897V1333.155z"/>
				<g>
					<path style="fill:#3F3F3F;" d="M1607.551,1391.456c-1.739,17.383,11.131,31.606,28.603,31.606h141.704
						c17.472,0,29.914-14.174,27.653-31.497l-24.169-185.072c-2.26-17.328-18.405-31.498-35.875-31.498h-84.497
						c-17.47,0-33.189,14.223-34.927,31.609L1607.551,1391.456z"/>
					<path style="fill:#FF9A00;" d="M1575.978,1423.041h167.344c9.053,0,16.806-3.8,21.814-9.916
						c4.623-5.634,6.937-13.247,5.826-21.577l-24.173-185.04c-2.262-17.332-18.395-31.492-35.876-31.492h-52.925
						c-4.285,0-8.622,0.819-12.859,2.264c-13.001,4.524-24.75,15.315-28.893,27.887l-62.073,187.731
						C1548.672,1409.511,1558.497,1423.041,1575.978,1423.041z"/>
					<path style="fill:#E58303;" d="M1537.155,1418.995h208.711l-9.937-35.295l-8.946-31.593
						c-4.705-19.797-16.279-31.443-33.759-31.443h-81.867c-17.432,0-34.954,14.154-38.812,31.443l-14.073,31.593L1537.155,1418.995z
						"/>
				</g>
				<g>
					<path style="fill:#3F3F3F;" d="M1536.844,1410.206c0,7.947,6.501,14.45,14.447,14.45h327.466
						c7.945,0,14.559-6.503,14.699-14.45l0.295-16.886c0.14-7.944-6.246-14.443-14.193-14.443h-328.267
						c-7.946,0-14.447,6.498-14.447,14.445V1410.206z"/>
				</g>
				<path style="fill:#252728;" d="M1879.441,948.55c-0.002,0-0.001,0-0.002,0l-0.299-0.001l-26.108-0.157
					c-12.653-0.079-23.783-5.363-30.534-14.499c-6.753-9.135-8.538-21.328-4.899-33.45l16.759-55.796
					c6.819-22.7,30.765-40.482,54.518-40.482l0.512,0.004l42.568,0.452c12.943,0.141,23.798,5.543,29.782,14.82
					c5.984,9.276,6.431,21.388,1.227,33.234l-25.497,58.041C1928.148,931.931,1902.659,948.55,1879.441,948.55z M1888.875,828.169
					c-13.056,0-27.789,10.928-31.531,23.384l-16.757,55.793c-1.464,4.878-1.034,9.239,1.212,12.279
					c2.246,3.038,6.287,4.729,11.379,4.761l26.262,0.158c13.709,0,30.556-10.975,36.052-23.486l25.497-58.041
					c1.904-4.333,2.115-8.183,0.579-10.564c-1.537-2.384-5.135-3.779-9.872-3.831L1888.875,828.169z"/>
				<g>
					<g>
						<g>
							<g>
								<g>
									<g>
										<rect x="510.491" y="1107.997" style="fill:#776964;" width="487.461" height="142.371"/>
										<rect x="711.091" y="1107.997" style="fill:#5B463B;" width="286.86" height="142.371"/>
										<polygon style="opacity:0.4;fill:#DDCEC7;" points="702.493,1153.434 622.018,1166.765 616.489,1140.568 
											696.965,1127.236 										"/>
										<polygon style="opacity:0.4;fill:#DDCEC7;" points="580.704,1218.242 531.045,1212.908 533.258,1196.743 
											582.917,1202.075 										"/>
										<polygon style="opacity:0.5;fill:#68564C;" points="959.403,1153.434 878.926,1166.765 873.396,1140.568 
											953.872,1127.236 										"/>
										<polygon style="opacity:0.5;fill:#68564C;" points="801.177,1215.563 745.498,1192.833 754.93,1174.705 810.61,1197.438 
																					"/>
									</g>
									<rect x="510.491" y="1240.813" style="opacity:0.5;fill:#68564C;" width="487.461" height="9.556"/>
								</g>
								<g>
									<g>
										<rect x="828.466" y="1107.997" style="fill:#776964;" width="487.462" height="142.371"/>
										<rect x="1029.067" y="1107.997" style="fill:#5B463B;" width="286.862" height="142.371"/>
										<polygon style="opacity:0.4;fill:#DDCEC7;" points="1020.471,1153.434 939.995,1166.765 934.464,1140.568 
											1014.94,1127.236 										"/>
										<polygon style="opacity:0.4;fill:#DDCEC7;" points="898.679,1218.242 849.02,1212.908 851.233,1196.743 900.893,1202.075 
																					"/>
										<polygon style="opacity:0.5;fill:#68564C;" points="1277.377,1153.434 1196.902,1166.765 1191.371,1140.568 
											1271.846,1127.236 										"/>
										<polygon style="opacity:0.5;fill:#68564C;" points="1119.153,1215.563 1063.474,1192.833 1072.904,1174.705 
											1128.586,1197.438 										"/>
									</g>
									<rect x="828.466" y="1240.813" style="opacity:0.5;fill:#68564C;" width="487.462" height="9.556"/>
								</g>
								<g>
									<g>
										<rect x="1125.69" y="1107.997" style="fill:#776964;" width="487.46" height="142.371"/>
										<rect x="1326.293" y="1107.997" style="fill:#5B463B;" width="286.857" height="142.371"/>
										<polygon style="opacity:0.4;fill:#DDCEC7;" points="1317.694,1153.434 1237.219,1166.765 1231.689,1140.568 
											1312.164,1127.236 										"/>
										<polygon style="opacity:0.4;fill:#DDCEC7;" points="1195.904,1218.242 1146.242,1212.908 1148.458,1196.743 
											1198.119,1202.075 										"/>
										<polygon style="opacity:0.5;fill:#68564C;" points="1574.6,1153.434 1494.126,1166.765 1488.595,1140.568 
											1569.07,1127.236 										"/>
										<polygon style="opacity:0.5;fill:#68564C;" points="1416.377,1215.563 1360.698,1192.833 1370.129,1174.705 
											1425.81,1197.438 										"/>
									</g>
									<rect x="1125.69" y="1240.813" style="opacity:0.5;fill:#68564C;" width="487.46" height="9.556"/>
								</g>
								<g>
									<g>
										<rect x="510.491" y="965.623" style="fill:#776964;" width="487.46" height="142.374"/>
										<rect x="711.089" y="965.623" style="fill:#5B463B;" width="286.861" height="142.374"/>
										<polygon style="opacity:0.4;fill:#DDCEC7;" points="702.492,1011.064 622.017,1024.393 616.489,998.193 696.964,984.865 
																					"/>
										<polygon style="opacity:0.4;fill:#DDCEC7;" points="580.703,1075.87 531.044,1070.536 533.256,1054.37 582.917,1059.703 
																					"/>
										<polygon style="opacity:0.5;fill:#68564C;" points="959.4,1011.064 878.926,1024.393 873.394,998.193 953.869,984.865 
																					"/>
										<polygon style="opacity:0.5;fill:#68564C;" points="801.176,1073.191 745.498,1050.459 754.928,1032.335 
											810.609,1055.067 										"/>
									</g>
									<rect x="510.491" y="1098.441" style="opacity:0.5;fill:#68564C;" width="487.46" height="9.556"/>
								</g>
								<g>
									<g>
										<rect x="789.915" y="965.623" style="fill:#776964;" width="487.462" height="142.374"/>
										<rect x="990.516" y="965.623" style="fill:#5B463B;" width="286.862" height="142.374"/>
										<polygon style="opacity:0.4;fill:#DDCEC7;" points="981.92,1011.064 901.445,1024.393 895.914,998.193 976.39,984.865 
																					"/>
										<polygon style="opacity:0.4;fill:#DDCEC7;" points="860.128,1075.87 810.468,1070.536 812.681,1054.37 862.343,1059.703 
																					"/>
										<polygon style="opacity:0.5;fill:#68564C;" points="1238.826,1011.064 1158.351,1024.393 1152.82,998.193 
											1233.295,984.865 										"/>
										<polygon style="opacity:0.5;fill:#68564C;" points="1080.602,1073.191 1024.922,1050.459 1034.353,1032.335 
											1090.036,1055.067 										"/>
									</g>
									<rect x="789.915" y="1098.441" style="opacity:0.5;fill:#68564C;" width="487.462" height="9.556"/>
								</g>
								<g>
									<g>
										<rect x="1125.689" y="965.623" style="fill:#776964;" width="487.461" height="142.374"/>
										<rect x="1326.291" y="965.623" style="fill:#5B463B;" width="286.859" height="142.374"/>
										<polygon style="opacity:0.4;fill:#DDCEC7;" points="1317.694,1011.064 1237.219,1024.393 1231.689,998.193 
											1312.163,984.865 										"/>
										<polygon style="opacity:0.4;fill:#DDCEC7;" points="1195.903,1075.87 1146.242,1070.536 1148.457,1054.37 
											1198.117,1059.703 										"/>
										<polygon style="opacity:0.5;fill:#68564C;" points="1574.6,1011.064 1494.125,1024.393 1488.595,998.193 1569.07,984.865 
																					"/>
										<polygon style="opacity:0.5;fill:#68564C;" points="1416.377,1073.191 1360.698,1050.459 1370.129,1032.335 
											1425.81,1055.067 										"/>
									</g>
									<rect x="1125.689" y="1098.441" style="opacity:0.5;fill:#68564C;" width="487.461" height="9.556"/>
								</g>
							</g>
							<g>
								<g>
									<g>
										<rect x="523.946" y="823.252" style="fill:#776964;" width="487.461" height="142.371"/>
										<rect x="724.547" y="823.252" style="fill:#5B463B;" width="286.86" height="142.371"/>
										<polygon style="opacity:0.4;fill:#DDCEC7;" points="715.949,868.69 635.474,882.021 629.944,855.823 710.421,842.493 
																					"/>
										<polygon style="opacity:0.4;fill:#DDCEC7;" points="594.16,933.498 544.501,928.164 546.713,911.999 596.373,917.331 
																					"/>
										<polygon style="opacity:0.5;fill:#68564C;" points="972.858,868.69 892.381,882.021 886.852,855.823 967.327,842.493 
																					"/>
										<polygon style="opacity:0.5;fill:#68564C;" points="814.633,930.819 758.953,908.089 768.386,889.961 824.066,912.695 
																					"/>
									</g>
									<rect x="523.946" y="956.069" style="opacity:0.5;fill:#68564C;" width="487.461" height="9.555"/>
								</g>
								<g>
									<g>
										<rect x="841.921" y="823.252" style="fill:#776964;" width="487.463" height="142.371"/>
										<rect x="1042.522" y="823.252" style="fill:#5B463B;" width="286.862" height="142.371"/>
										<polygon style="opacity:0.4;fill:#DDCEC7;" points="1033.925,868.69 953.45,882.021 947.92,855.823 1028.396,842.493 
																					"/>
										<polygon style="opacity:0.4;fill:#DDCEC7;" points="912.134,933.498 862.475,928.164 864.688,911.999 914.348,917.331 
																					"/>
										<polygon style="opacity:0.5;fill:#68564C;" points="1290.833,868.69 1210.358,882.021 1204.827,855.823 1285.301,842.493 
																					"/>
										<polygon style="opacity:0.5;fill:#68564C;" points="1132.607,930.819 1076.929,908.089 1086.359,889.961 
											1142.042,912.695 										"/>
									</g>
									<rect x="841.921" y="956.069" style="opacity:0.5;fill:#68564C;" width="487.463" height="9.555"/>
								</g>
								<g>
									<g>
										<rect x="1139.146" y="823.252" style="fill:#776964;" width="487.461" height="142.371"/>
										<rect x="1339.748" y="823.252" style="fill:#5B463B;" width="286.858" height="142.371"/>
										<polygon style="opacity:0.4;fill:#DDCEC7;" points="1331.15,868.69 1250.674,882.021 1245.144,855.823 1325.62,842.493 
																					"/>
										<polygon style="opacity:0.4;fill:#DDCEC7;" points="1209.359,933.498 1159.698,928.164 1161.913,911.999 
											1211.574,917.331 										"/>
										<polygon style="opacity:0.5;fill:#68564C;" points="1588.056,868.69 1507.581,882.021 1502.05,855.823 1582.526,842.493 
																					"/>
										<polygon style="opacity:0.5;fill:#68564C;" points="1429.833,930.819 1374.153,908.089 1383.585,889.961 
											1439.266,912.695 										"/>
									</g>
									<rect x="1139.146" y="956.069" style="opacity:0.5;fill:#68564C;" width="487.461" height="9.555"/>
								</g>
								<g>
									<g>
										<rect x="523.946" y="680.88" style="fill:#776964;" width="487.46" height="142.372"/>
										<rect x="724.545" y="680.88" style="fill:#5B463B;" width="286.861" height="142.372"/>
										<polygon style="opacity:0.4;fill:#DDCEC7;" points="715.948,726.32 635.473,739.649 629.944,713.449 710.42,700.121 
																					"/>
										<polygon style="opacity:0.4;fill:#DDCEC7;" points="594.159,791.125 544.5,785.792 546.712,769.626 596.373,774.96 
																					"/>
										<polygon style="opacity:0.5;fill:#68564C;" points="972.855,726.32 892.381,739.649 886.85,713.449 967.325,700.121 
																					"/>
										<polygon style="opacity:0.5;fill:#68564C;" points="814.632,788.447 758.953,765.715 768.384,747.59 824.065,770.323 
																					"/>
									</g>
									<rect x="523.946" y="813.697" style="opacity:0.5;fill:#68564C;" width="487.46" height="9.555"/>
								</g>
								<g>
									<g>
										<rect x="803.371" y="680.88" style="fill:#776964;" width="487.463" height="142.372"/>
										<rect x="1003.971" y="680.88" style="fill:#5B463B;" width="286.862" height="142.372"/>
										<polygon style="opacity:0.4;fill:#DDCEC7;" points="995.375,726.32 914.9,739.649 909.369,713.449 989.845,700.121 
																					"/>
										<polygon style="opacity:0.4;fill:#DDCEC7;" points="873.583,791.125 823.924,785.792 826.136,769.626 875.798,774.96 
																					"/>
										<polygon style="opacity:0.5;fill:#68564C;" points="1252.281,726.32 1171.807,739.649 1166.276,713.449 1246.751,700.121 
																					"/>
										<polygon style="opacity:0.5;fill:#68564C;" points="1094.057,788.447 1038.378,765.715 1047.808,747.59 1103.491,770.323 
																					"/>
									</g>
									<rect x="803.371" y="813.697" style="opacity:0.5;fill:#68564C;" width="487.463" height="9.555"/>
								</g>
								<g>
									<g>
										<rect x="1139.145" y="680.88" style="fill:#776964;" width="487.461" height="142.372"/>
										<rect x="1339.746" y="680.88" style="fill:#5B463B;" width="286.86" height="142.372"/>
										<polygon style="opacity:0.4;fill:#DDCEC7;" points="1331.15,726.32 1250.674,739.649 1245.144,713.449 1325.619,700.121 
																					"/>
										<polygon style="opacity:0.4;fill:#DDCEC7;" points="1209.358,791.125 1159.698,785.792 1161.912,769.626 1211.573,774.96 
																					"/>
										<polygon style="opacity:0.5;fill:#68564C;" points="1588.056,726.32 1507.58,739.649 1502.05,713.449 1582.526,700.121 
																					"/>
										<polygon style="opacity:0.5;fill:#68564C;" points="1429.833,788.447 1374.153,765.715 1383.585,747.59 1439.266,770.323 
																					"/>
									</g>
									<rect x="1139.145" y="813.697" style="opacity:0.5;fill:#68564C;" width="487.461" height="9.555"/>
								</g>
							</g>
						</g>
						<g>
							<rect x="654.693" y="1265.347" style="fill:#542E14;" width="473.821" height="91.973"/>
							<g>
								<g>
									<g>
										<g>
											<g>
												<g>
													<rect x="515.071" y="1250.368" style="fill:#BF7A47;" width="96.129" height="29.748"/>
													<rect x="609.782" y="1250.368" style="fill:#75421B;" width="579.525" height="30.658"/>
												</g>
												<g>
													<rect x="795.474" y="1250.368" style="fill:#BF7A47;" width="96.13" height="29.748"/>
												</g>
												<g>
													<rect x="655.273" y="1250.368" style="fill:#BF7A47;" width="96.13" height="29.748"/>
												</g>
												<g>
													<rect x="935.678" y="1250.368" style="fill:#BF7A47;" width="96.13" height="29.748"/>
												</g>
												<g>
													<rect x="1138.55" y="1250.368" style="fill:#75421B;" width="483.477" height="30.952"/>
												</g>
											</g>
											<g>
												<rect x="1302.403" y="1303.253" style="fill:#542E14;" width="64.977" height="67.409"/>
												<rect x="1497.433" y="1303.253" style="fill:#542E14;" width="64.977" height="67.409"/>
												<rect x="604.38" y="1311.384" style="fill:#75421B;" width="63.285" height="67.359"/>
												<rect x="822.89" y="1311.339" style="fill:#75421B;" width="63.285" height="67.404"/>
												<rect x="876.949" y="1311.339" style="fill:#75421B;" width="63.287" height="67.404"/>
												<rect x="1120.146" y="1311.339" style="fill:#75421B;" width="63.288" height="67.404"/>
												<polygon style="fill:#A86935;" points="604.821,1378.743 515.164,1378.743 515.164,1296.249 604.821,1311.339 
																									"/>
												<polygon style="fill:#A86935;" points="888.717,1378.743 799.057,1378.743 799.057,1297.898 888.717,1311.339 
																									"/>
												<polygon style="fill:#A86935;" points="1082.369,1297.101 1082.369,1378.743 1171.997,1378.743 1171.997,1311.312 
																									"/>
												<polygon style="fill:#75421B;" points="1233.975,1378.743 1170.692,1378.743 1170.692,1311.339 1233.975,1298.718 
																									"/>
												<polygon style="fill:#75421B;" points="1621.618,1378.743 1558.329,1378.743 1558.329,1311.339 1621.618,1296.249 
																									"/>
												<polygon style="fill:#75421B;" points="1427.796,1378.743 1364.513,1378.743 1364.513,1311.339 1427.796,1292.958 
																									"/>
												<rect x="515.164" y="1279.691" style="fill:#A86935;" width="656.843" height="31.642"/>
												<rect x="1170.692" y="1279.691" style="fill:#75421B;" width="450.926" height="31.648"/>
												<rect x="1170.692" y="1358.418" style="fill:#75421B;" width="450.926" height="20.325"/>
											</g>
											<rect x="1074.609" y="1250.368" style="fill:#BF7A47;" width="96.128" height="30.044"/>
										</g>
									</g>
								</g>
							</g>
						</g>
					</g>
					<g>
						<g>
							<path style="fill:#FF9A00;" d="M1723.045,1400.444c0,13.569-10.15,24.573-22.664,24.573H493.702
								c-12.515,0-22.665-11.003-22.665-24.573c0-6.777,2.537-12.923,6.64-17.371c4.104-4.448,9.773-7.201,16.025-7.201H1700.38
								C1712.895,1375.872,1723.045,1386.876,1723.045,1400.444z"/>
							<path style="fill:#E58303;" d="M1807.988,1400.444c0,13.569-11.636,24.573-25.985,24.573h-631.852
								c-4.233-6.368-6.853-15.179-6.853-24.918c0-9.393,2.437-17.932,6.407-24.227h632.298
								C1796.351,1375.872,1807.988,1386.876,1807.988,1400.444z"/>
						</g>
						<g>
							<rect x="647.943" y="1346.371" style="fill:#FF9A00;" width="151.115" height="32.808"/>
							<rect x="934.464" y="1346.371" style="fill:#FF9A00;" width="147.905" height="32.808"/>
						</g>
					</g>
				</g>
			</g>
			<g>
				<g>
					<path style="fill:#1D2021;" d="M923.268,1422.995c-15.986,0-28.945,18.104-28.945,40.443c0,22.333,12.96,40.434,28.945,40.434
						h40.895v-80.877H923.268z"/>
					<path style="fill:#3F3F3F;" d="M991.435,1463.438c0,22.333-12.961,40.434-28.946,40.434c-15.985,0-28.943-18.101-28.943-40.434
						c0-22.339,12.958-40.443,28.943-40.443C978.474,1422.995,991.435,1441.099,991.435,1463.438z"/>
					<path style="fill:#252728;" d="M973.924,1463.438c0,8.818-5.12,15.971-11.435,15.971c-6.315,0-11.432-7.152-11.432-15.971
						c0-8.823,5.118-15.975,11.432-15.975C968.804,1447.463,973.924,1454.615,973.924,1463.438z"/>
				</g>
				<g>
					<path style="fill:#252728;" d="M858.205,1422.995c-15.986,0-28.946,18.104-28.946,40.443c0,22.333,12.96,40.434,28.946,40.434
						H899.1v-80.877H858.205z"/>
					<path style="fill:#3F3F3F;" d="M926.371,1463.438c0,22.333-12.959,40.434-28.945,40.434c-15.985,0-28.944-18.101-28.944-40.434
						c0-22.339,12.958-40.443,28.944-40.443C913.411,1422.995,926.371,1441.099,926.371,1463.438z"/>
					<path style="fill:#252728;" d="M908.861,1463.438c0,8.818-5.12,15.971-11.435,15.971c-6.315,0-11.433-7.152-11.433-15.971
						c0-8.823,5.118-15.975,11.433-15.975C903.74,1447.463,908.861,1454.615,908.861,1463.438z"/>
				</g>
			</g>
		</g>
		<g>
			<path style="fill:#F48E69;" d="M1906.26,797.011c-6.131,2.139-11.655,10.351-14.867,21.024
				c-4.014,13.337,8.651-2.343,13.777-7.519c-2.441,5.256-8.708,13.103-1.929,11.997c2.305-0.376,8.959-6.011,12.219-9.102
				c-0.776,2.221-4.472,7.57-3.43,9.701c2.178,4.453,21.174-13.623,28.019-14.488c9.922-1.256,14.639,4.787,20.49,8.609
				C1960.538,817.233,1942.906,784.221,1906.26,797.011z"/>
			<path style="fill:#F48E69;" d="M1890.005,803.708c-1.181,1.209-2.14,3.693-3.008,5.367c-1.048,2.02-2.364,3.787-3.429,5.786
				c-1.283,2.408-4.696,7.738-1.183,9.096c4.416,1.706,9.554-6.896,12.282-10.302l8.787-14.288
				C1899.903,802.301,1893.593,800.035,1890.005,803.708z"/>
		</g>
		<g>
			<path style="fill:#F48E69;" d="M1849.272,804.598c-5.469,3.499-8.943,12.766-9.599,23.893
				c-0.819,13.904,7.874-4.281,11.665-10.501c-1.159,5.676-5.442,14.761,0.898,12.115c2.155-0.898,7.326-7.918,9.781-11.682
				c-0.241,2.341-2.599,8.399-1.093,10.231c3.149,3.828,17.448-18.151,23.908-20.578c9.362-3.518,15.349,1.27,21.925,3.635
				C1906.756,811.712,1881.966,783.675,1849.272,804.598z"/>
			<path style="fill:#F48E69;" d="M1874.238,806.194c-0.87,1.45-1.226,4.088-1.684,5.917c-0.552,2.208-1.425,4.231-1.998,6.423
				c-0.691,2.641-2.778,8.614,0.953,9.122c4.691,0.64,7.7-8.918,9.565-12.864l5.244-15.934
				C1883.542,802.535,1876.878,801.791,1874.238,806.194z"/>
		</g>
	</g>
</g>
</svg>
